<svg width="329" height="43" viewBox="0 0 329 43" fill="none" xmlns="http://www.w3.org/2000/svg">
<path d="M306.861 22.4414C306.413 22.4769 305.961 22.5014 305.523 22.5547C305.239 22.588 305.117 22.4903 304.927 22.4392C304.864 22.4214 304.796 22.3859 304.737 22.3903C304.294 22.4258 303.851 22.4658 303.409 22.5058C303.273 22.5924 303.187 22.7079 302.979 22.7501C302.776 22.7901 302.536 22.7901 302.311 22.8101C302.012 22.8345 301.714 22.859 301.416 22.8812C301.267 22.8923 301.145 22.9345 301.095 23.0144C301.086 23.0278 301.185 23.0611 301.24 23.081C301.42 23.1477 301.597 23.2232 301.795 23.2743C301.985 23.3231 302.22 23.2432 302.424 23.3054C302.88 23.4453 302.884 23.4431 303.232 23.4164C303.531 23.392 303.829 23.3654 304.127 23.3476C304.186 23.3431 304.254 23.3764 304.317 23.3942C304.507 23.4431 304.629 23.5541 304.909 23.5119C305.121 23.4786 305.356 23.472 305.577 23.4542C305.763 23.5186 305.934 23.5919 306.133 23.643C306.318 23.6918 306.373 23.7296 306.273 23.794C306.183 23.854 306.056 23.8784 305.889 23.8829C305.74 23.8851 305.591 23.905 305.442 23.9162C305.365 23.9228 305.293 23.9273 305.22 23.9339C304.936 23.9584 304.936 23.9584 304.416 23.8162C304.213 23.7607 303.982 23.8384 303.788 23.7851C303.657 23.7496 303.544 23.6963 303.418 23.6585C303.363 23.643 303.278 23.6408 303.21 23.6452C302.984 23.6607 302.758 23.6718 302.541 23.7007C302.387 23.7207 302.297 23.7829 302.315 23.8451C302.32 23.8695 302.428 23.9051 302.491 23.9073C302.636 23.9117 302.789 23.8806 302.93 23.8962C303.065 23.9117 303.205 23.9561 303.305 24.005C303.508 24.1072 303.738 24.0161 303.933 24.0428C304.136 24.0716 304.303 24.1605 304.497 24.2138C304.547 24.2271 304.642 24.2049 304.719 24.1982C304.94 24.1827 305.162 24.1694 305.383 24.1538C305.568 24.2182 305.767 24.276 305.934 24.3493C306.237 24.4825 306.562 24.5336 306.956 24.4692C307.177 24.4337 307.394 24.447 307.57 24.5336C307.751 24.6224 307.959 24.6136 308.189 24.5958C308.402 24.578 308.618 24.5292 308.835 24.5914C309.305 24.7291 309.31 24.7357 309.866 24.6824C310.033 24.6669 310.159 24.6624 310.286 24.7135C310.403 24.7602 310.53 24.8001 310.652 24.8446C310.873 24.829 311.099 24.8135 311.32 24.7957C311.605 24.7713 311.763 24.8024 311.831 24.9267C311.872 25.0022 311.89 25.0711 311.989 25.1222C312.107 25.1844 312.233 25.1821 312.405 25.1644C312.568 25.1488 312.685 25.1244 312.753 25.0445C312.78 25.0111 312.834 24.98 312.884 24.9534C312.924 24.9334 312.988 24.9023 313.024 24.9067C313.092 24.9156 313.182 24.94 313.205 24.9689C313.426 25.2377 313.426 25.2399 313.652 25.3176C313.9 25.4043 314.158 25.482 314.384 25.5797C314.587 25.6663 314.791 25.6286 315.012 25.6286C315.179 25.6286 315.288 25.6863 315.274 25.7441C315.265 25.7774 315.202 25.8262 315.148 25.8307C314.705 25.8751 314.257 25.9129 313.81 25.944C313.756 25.9484 313.688 25.9084 313.625 25.8884C313.498 25.8484 313.385 25.7863 313.25 25.7729C313.114 25.7596 312.956 25.7929 312.807 25.804C312.658 25.8151 312.5 25.844 312.364 25.8263C312.229 25.8085 312.12 25.7441 311.994 25.7019C311.935 25.6819 311.854 25.653 311.804 25.6597C311.474 25.713 311.23 25.6397 310.995 25.542C310.945 25.522 310.86 25.5086 310.796 25.5131C310.272 25.5508 309.753 25.5953 309.228 25.6375C309.016 25.6552 308.844 25.5775 308.799 25.4464C308.776 25.3732 308.731 25.2999 308.731 25.2266C308.731 25.0933 308.483 25.02 308.302 25.0356C308.004 25.0578 307.701 25.0755 307.407 25.1088C307.168 25.1355 306.965 25.1088 306.802 25.0289C306.612 24.9378 306.395 24.9556 306.178 24.98C306.016 24.9978 305.971 25.0711 305.98 25.2554C305.989 25.4042 305.912 25.4509 305.618 25.4753C305.248 25.5064 304.872 25.5375 304.497 25.5619C304.439 25.5664 304.371 25.5286 304.312 25.5086C304.186 25.4687 304.073 25.4042 303.937 25.3909C303.802 25.3754 303.643 25.4087 303.494 25.422C303.345 25.4331 303.187 25.4642 303.052 25.4487C302.916 25.4331 302.803 25.3665 302.681 25.3243C302.622 25.3043 302.55 25.2754 302.491 25.2799C302.193 25.2976 301.895 25.3243 301.597 25.3487C301.262 25.3754 301.262 25.3754 300.788 25.2377C300.571 25.1755 300.354 25.2244 300.142 25.2421C299.916 25.2599 299.703 25.2688 299.527 25.1799C299.41 25.1222 299.279 25.0867 299.139 25.0978C298.764 25.1244 298.393 25.1577 298.018 25.1844C297.955 25.1888 297.869 25.1777 297.819 25.1577C297.58 25.0644 297.345 24.9911 297.01 25.0378C296.721 25.0778 296.409 25.08 296.12 25.1177C295.962 25.1377 295.89 25.2088 295.921 25.2643C295.939 25.2932 296.034 25.3265 296.098 25.3265C296.242 25.3287 296.4 25.2954 296.536 25.3087C296.816 25.3354 296.956 25.522 297.322 25.4709C297.539 25.4398 297.765 25.4287 297.991 25.4198C298.05 25.4176 298.113 25.4598 298.176 25.482C298.357 25.542 298.515 25.6197 298.777 25.5797C298.994 25.5486 299.224 25.5397 299.446 25.522C299.798 25.4931 299.798 25.4953 300.255 25.6308C300.472 25.6952 300.688 25.6441 300.901 25.6286C301.059 25.6175 301.208 25.5953 301.335 25.6264C301.529 25.673 301.669 25.7796 301.908 25.7729C302.134 25.7663 302.356 25.7352 302.582 25.7241C302.722 25.7174 302.853 25.753 302.966 25.8129C303.083 25.8729 303.21 25.8995 303.363 25.8862C303.585 25.8684 303.811 25.8462 304.037 25.8351C304.1 25.8329 304.172 25.8529 304.231 25.8707C304.357 25.9106 304.479 25.9573 304.601 25.9995C304.823 25.9862 305.049 25.9817 305.266 25.9551C305.433 25.9351 305.55 25.944 305.686 25.9884C305.858 26.0484 305.998 26.155 306.278 26.1039C306.418 26.0795 306.581 26.0861 306.721 26.0639C306.892 26.035 307.01 26.0461 307.132 26.1128C307.362 26.2394 307.651 26.2416 307.95 26.1927C308.275 26.1394 308.519 26.2016 308.763 26.2993C309.021 26.4015 309.021 26.3993 309.219 26.6458C309.278 26.7169 309.445 26.7502 309.585 26.7369C309.82 26.7147 310.024 26.7258 310.195 26.8102C310.376 26.9012 310.593 26.8901 310.814 26.8657C311.108 26.8324 311.402 26.8035 311.641 26.9323C311.759 26.9945 311.885 27.01 312.043 26.9945C312.491 26.9545 312.943 26.9301 313.381 26.8813C313.648 26.8502 313.801 26.9212 313.982 26.9812C314.226 27.0634 314.492 27.1367 314.492 27.3121C314.492 27.341 314.556 27.3743 314.61 27.3965C314.727 27.4432 314.854 27.4831 314.976 27.5276C315.157 27.5942 315.333 27.6497 315.581 27.6142C315.798 27.5853 316.029 27.5764 316.25 27.5564C316.471 27.5364 316.675 27.5253 316.874 27.6097C317.104 27.7052 317.348 27.7963 317.61 27.8674C317.795 27.9185 318.039 27.8318 318.238 27.9007C318.36 27.9429 318.478 27.9917 318.609 28.0273C318.663 28.0428 318.749 28.0317 318.821 28.0273C318.97 28.0184 319.124 28.0118 319.269 27.9895C319.436 27.9651 319.562 27.9696 319.689 28.0206C319.806 28.0673 319.924 28.1317 320.059 28.145C320.263 28.165 320.488 28.0762 320.692 28.1783C320.796 28.2294 320.927 28.2783 321.062 28.2938C321.198 28.3094 321.356 28.276 321.501 28.2783C321.564 28.2783 321.641 28.3138 321.677 28.3427C321.699 28.3582 321.668 28.4004 321.636 28.4226C321.596 28.4493 321.537 28.4848 321.478 28.4893C321.031 28.5293 320.583 28.5626 320.136 28.6003C319.869 28.6225 319.869 28.6225 319.332 28.4826C319.205 28.4493 319.065 28.4559 318.907 28.4715C318.695 28.4915 318.478 28.5293 318.256 28.4893C317.967 28.3382 317.61 28.3249 317.231 28.3826C317.073 28.4071 316.928 28.4071 316.81 28.3649C316.562 28.2805 316.3 28.2028 316.078 28.1028C315.907 28.0251 315.825 28.0184 315.753 28.125C315.731 28.1583 315.708 28.1939 315.712 28.225C315.74 28.336 315.789 28.4448 315.816 28.5559C315.825 28.587 315.789 28.6225 315.767 28.6559C315.694 28.7491 315.6 28.7425 315.441 28.6647C315.283 28.587 315.093 28.5359 314.84 28.5715C314.624 28.6025 314.389 28.5981 314.172 28.6314C313.837 28.6803 313.602 28.6092 313.363 28.5137C313.313 28.4937 313.227 28.4826 313.164 28.4871C312.491 28.5381 311.822 28.5959 311.149 28.647C311.004 28.6581 310.873 28.6248 310.76 28.5648C310.643 28.5048 310.512 28.4737 310.367 28.4848C309.771 28.5315 309.174 28.5737 308.578 28.6314C308.334 28.6559 308.139 28.627 307.972 28.5492C307.846 28.4915 307.728 28.4737 307.57 28.4804C307.398 28.487 307.276 28.5093 307.191 28.5737C307.109 28.6359 307.168 28.6736 307.349 28.7225C307.543 28.7758 307.724 28.8446 307.909 28.9068C308.058 28.8979 308.207 28.8802 308.352 28.8824C308.415 28.8824 308.474 28.9224 308.537 28.9446C308.718 29.009 308.885 29.0734 309.143 29.0379C309.359 29.0068 309.59 29.0001 309.811 28.9801C310.118 28.9557 310.118 28.9557 310.616 29.0956C310.742 29.1311 310.878 29.1289 311.04 29.1089C311.18 29.0934 311.325 29.1245 311.424 29.1911C311.465 29.2178 311.452 29.2622 311.366 29.4088C311.366 29.5176 311.46 29.4687 311.492 29.3977C311.542 29.2955 311.447 29.2622 311.266 29.3177C311.14 29.3577 311.076 29.4154 311.108 29.4621C311.126 29.4865 311.212 29.5176 311.366 29.4088C311.763 29.2755 312.066 29.26 312.355 29.2244C312.527 29.2044 312.635 29.2133 312.771 29.2711C312.934 29.3399 313.096 29.4132 313.363 29.3777C313.652 29.3377 313.959 29.3332 314.253 29.2999C314.524 29.2688 314.664 29.3666 314.836 29.4243C315.044 29.4932 315.274 29.4154 315.464 29.4554C315.663 29.4954 315.803 29.5931 316.033 29.6109C316.368 29.5509 316.58 29.662 316.833 29.7353C317.032 29.7908 317.267 29.7419 317.479 29.7175C317.719 29.6908 317.917 29.7153 318.085 29.7952C318.274 29.8863 318.487 29.8663 318.704 29.8463C319.21 29.8019 319.228 29.7952 319.521 29.9174C319.734 30.0062 319.937 29.9663 320.15 29.9552C320.335 30.0151 320.516 30.0795 320.71 30.1328C320.76 30.1461 320.854 30.1239 320.931 30.1173C321.153 30.0995 321.379 30.0817 321.6 30.064C321.749 30.0529 321.907 30.0196 322.043 30.0329C322.178 30.0484 322.291 30.1128 322.413 30.155C322.535 30.1972 322.662 30.2394 322.779 30.2839C322.96 30.3505 323.132 30.406 323.385 30.3727C323.602 30.3438 323.828 30.3349 324.054 30.315C324.338 30.2905 324.329 30.2972 324.858 30.4305C325.143 30.5037 325.436 30.4149 325.725 30.406C325.87 30.4016 326.01 30.426 326.109 30.4904C326.15 30.5171 326.137 30.5615 326.15 30.5993C325.405 30.6592 324.655 30.7103 323.918 30.7836C323.633 30.8125 323.484 30.7325 323.331 30.6659C323.078 30.5593 322.743 30.7147 322.504 30.577C322.359 30.4948 322.151 30.4482 321.903 30.4882C321.758 30.5104 321.605 30.5082 321.455 30.5282C321.076 30.577 320.728 30.5793 320.425 30.426C320.321 30.3727 320.172 30.3438 320.064 30.2928C319.937 30.2372 319.815 30.2061 319.666 30.2172C318.993 30.2705 318.324 30.3238 317.655 30.3816C317.597 30.386 317.538 30.4193 317.488 30.4438C317.362 30.506 317.402 30.5548 317.606 30.5948C317.673 30.6081 317.728 30.637 317.791 30.6592C317.913 30.7014 318.026 30.768 318.161 30.7836C318.297 30.7991 318.455 30.768 318.604 30.7569C318.753 30.7458 318.912 30.7125 319.047 30.7258C319.183 30.7414 319.296 30.8058 319.422 30.8458C319.481 30.8658 319.553 30.8991 319.612 30.8969C319.91 30.8835 320.204 30.8591 320.502 30.8391C320.687 30.8991 320.845 30.9857 321.067 31.0057C321.207 31.019 321.356 30.9946 321.501 30.999C321.564 31.0012 321.645 31.0346 321.677 31.0634C321.695 31.0812 321.636 31.1256 321.591 31.1478C321.419 31.2322 321.184 31.2167 320.972 31.2433C320.742 31.2722 320.534 31.2633 320.357 31.1767C320.24 31.119 320.109 31.0879 319.964 31.099C319.589 31.1279 319.219 31.1612 318.844 31.1856C318.78 31.1901 318.704 31.1701 318.645 31.1545C318.171 31.019 318.17 31.0146 317.836 31.0435C317.344 31.0857 317.344 31.0856 317.014 30.9679C316.951 30.9457 316.883 30.9035 316.828 30.9058C316.304 30.9413 315.785 30.9768 315.265 31.0279C315.093 31.0434 314.976 31.0435 314.849 30.9857C314.741 30.9368 314.614 30.8813 314.479 30.868C314.339 30.8547 314.185 30.888 314.036 30.8991C313.887 30.9102 313.729 30.9391 313.598 30.9213C313.462 30.9035 313.345 30.8414 313.227 30.7969C313.105 30.7503 312.974 30.7525 312.807 30.7703C312.292 30.8213 312.287 30.8147 311.777 30.677C311.718 30.6614 311.641 30.6437 311.578 30.6481C311.203 30.6748 310.832 30.7081 310.457 30.7347C310.313 30.7458 310.173 30.717 310.073 30.6526C310.033 30.6259 310.046 30.5815 310.019 30.4948C309.988 30.4749 310.024 30.5104 310.033 30.5437C310.1 30.5393 310.182 30.5437 310.232 30.5259C310.358 30.4837 310.421 30.4282 310.39 30.3816C310.372 30.3571 310.286 30.326 310.232 30.326C310.132 30.326 310.046 30.3749 310.019 30.4948C309.734 30.5681 309.432 30.5837 309.138 30.6192C308.966 30.6414 308.858 30.6304 308.722 30.5726C308.56 30.5015 308.392 30.4327 308.126 30.4682C307.837 30.5082 307.529 30.5149 307.231 30.546C306.888 30.5815 306.739 30.3816 306.449 30.386C306.151 30.3905 305.853 30.4282 305.555 30.4549C305.293 30.4771 305.293 30.4771 304.751 30.3327C304.552 30.2794 304.317 30.3571 304.122 30.3016C303.991 30.2661 303.878 30.2128 303.752 30.175C303.698 30.1595 303.612 30.1595 303.544 30.1639C303.169 30.1906 302.79 30.2083 302.428 30.2572C302.017 30.315 301.705 30.2528 301.411 30.1217C301.041 30.1462 300.666 30.1595 300.3 30.2017C300.033 30.2328 299.88 30.1595 299.699 30.0995C299.636 30.0795 299.581 30.0462 299.514 30.0373C299.446 30.0284 299.364 30.0462 299.292 30.0529C298.994 30.0773 298.687 30.0884 298.397 30.1284C298.041 30.1795 297.905 29.9973 297.629 29.9751C297.444 30.084 297.345 30.2328 296.979 30.2439C296.681 30.2528 296.382 30.2883 296.084 30.3127C295.935 30.3238 295.786 30.3372 295.637 30.3483C295.397 30.3683 295.284 30.4549 295.334 30.5881C295.361 30.6614 295.384 30.7347 295.406 30.808C295.451 30.9391 295.338 31.0501 295.149 31.0657C294.625 31.1079 294.105 31.1523 293.581 31.19C293.441 31.2011 293.305 31.1634 293.192 31.1034C293.075 31.0434 292.944 31.0168 292.799 31.0279C292.275 31.0701 291.755 31.1145 291.231 31.1523C291.172 31.1567 291.096 31.1345 291.037 31.1167C290.91 31.0768 290.788 31.0301 290.666 30.9879C290.368 31.0079 290.074 31.0212 289.781 31.0479C289.306 31.0879 289.306 31.0901 288.958 30.9679C288.895 30.9457 288.832 30.9035 288.773 30.9058C288.547 30.9146 288.326 30.9368 288.1 30.9568C287.436 31.0146 287.436 31.0146 287.241 30.9479C287.065 30.8858 286.907 30.8102 286.64 30.8458C286.351 30.8858 286.044 30.8991 285.746 30.9213C285.524 30.9368 285.303 30.9546 285.081 30.9591C285.023 30.9613 284.96 30.9191 284.896 30.8969C284.716 30.828 284.539 30.7725 284.291 30.8102C284.146 30.8325 283.993 30.8369 283.843 30.848C283.455 30.8791 283.455 30.8791 282.818 30.7458C282.754 30.7325 282.678 30.717 282.614 30.7236C282.09 30.7636 281.571 30.808 281.046 30.8458C280.983 30.8502 280.906 30.8369 280.843 30.8258C280.129 30.697 280.129 30.697 279.37 30.7592C279.081 30.7814 279.072 30.7903 278.769 30.6725C278.634 30.6215 278.521 30.597 278.363 30.6126C277.766 30.6659 277.165 30.7014 276.573 30.7636C276.307 30.7903 276.153 30.7236 275.972 30.6636C275.909 30.6437 275.841 30.5993 275.787 30.6015C275.191 30.6437 274.594 30.6948 273.998 30.737C273.943 30.7414 273.876 30.697 273.812 30.677C273.69 30.637 273.573 30.577 273.437 30.5637C273.297 30.5504 273.144 30.5837 272.99 30.5948C272.615 30.6237 272.615 30.6215 272.181 30.4904C272.122 30.4727 272.046 30.4482 271.987 30.4527C271.39 30.4971 270.789 30.5348 270.198 30.5993C269.859 30.6348 269.628 30.5704 269.389 30.4771C269.339 30.4571 269.253 30.4482 269.19 30.4527C268.517 30.5037 267.848 30.5615 267.175 30.6126C267.035 30.6237 266.899 30.5859 266.786 30.5282C266.605 30.4371 266.393 30.4482 266.167 30.4682C265.647 30.5148 265.643 30.5126 265.336 30.406C265.272 30.3838 265.218 30.3549 265.15 30.3438C265.087 30.3327 265.006 30.3394 264.938 30.3438C264.64 30.366 264.342 30.3905 264.043 30.4149C263.745 30.4393 263.442 30.4527 263.149 30.4904C262.787 30.5371 262.615 30.3927 262.362 30.326C261.992 30.3549 261.612 30.3727 261.246 30.4193C260.966 30.4549 260.835 30.3571 260.65 30.3061C260.587 30.2883 260.519 30.2505 260.46 30.255C259.787 30.3038 259.114 30.3571 258.445 30.4171C258.282 30.4304 258.174 30.4127 258.038 30.3594C257.736 30.2394 257.722 30.2439 257.216 30.2883C256.994 30.3083 256.782 30.3261 256.592 30.235C256.425 30.1528 256.222 30.1328 255.982 30.1595C255.689 30.1928 255.386 30.2106 255.088 30.2328C254.789 30.2572 254.491 30.2905 254.193 30.3016C253.954 30.3127 253.809 30.2084 253.619 30.155C253.56 30.1395 253.479 30.1373 253.411 30.1417C253.113 30.1617 252.806 30.1772 252.517 30.215C252.164 30.2616 251.97 30.1395 251.721 30.0684C251.667 30.0529 251.577 30.0618 251.509 30.0684C250.985 30.1084 250.465 30.1528 249.941 30.195C249.756 30.135 249.566 30.0773 249.381 30.0173C249.083 30.0396 248.784 30.064 248.486 30.0862C248.26 30.104 248.03 30.1106 247.817 30.1439C247.542 30.1884 247.406 30.084 247.221 30.0329C247.158 30.0151 247.09 29.9774 247.031 29.9818C246.656 30.0062 246.281 30.0329 245.911 30.0706C245.558 30.1084 245.418 29.9085 245.129 29.9107C244.831 29.9129 244.523 29.9418 244.234 29.9818C243.9 30.0284 243.665 29.9574 243.425 29.8619C243.376 29.8419 243.29 29.8308 243.227 29.8352C242.852 29.8619 242.481 29.8952 242.106 29.9218C242.043 29.9263 241.966 29.9152 241.903 29.9018C241.189 29.7708 241.189 29.7686 240.877 29.7952C240.656 29.813 240.43 29.8352 240.204 29.8463C240.141 29.8508 240.064 29.8308 240.005 29.813C239.535 29.6775 239.535 29.6753 239.196 29.702C238.898 29.7264 238.6 29.7508 238.301 29.7752C238.116 29.7153 237.926 29.6575 237.741 29.5976C237.371 29.6264 236.991 29.6486 236.625 29.6886C236.453 29.7064 236.34 29.6997 236.209 29.6442C236.047 29.5776 235.884 29.4998 235.613 29.5376C235.324 29.5776 235.016 29.582 234.723 29.6153C234.37 29.6553 234.226 29.4532 233.941 29.4554C233.643 29.4576 233.336 29.4865 233.046 29.5265C232.712 29.5731 232.477 29.5021 232.238 29.4066C232.188 29.3866 232.102 29.3755 232.039 29.3799C231.216 29.4443 230.399 29.5087 229.576 29.5776C229.07 29.6198 229.07 29.622 228.108 29.4998C228.04 29.4909 227.968 29.4821 227.9 29.4865C227.602 29.5065 227.294 29.522 227.005 29.5598C226.653 29.6064 226.458 29.4865 226.21 29.4132C226.156 29.3977 226.07 29.4065 225.997 29.411C225.772 29.4265 225.55 29.4465 225.324 29.4643C225.026 29.4887 224.728 29.5132 224.43 29.5376C224.244 29.4798 224.055 29.4199 223.869 29.3621C223.499 29.391 223.119 29.4066 222.753 29.4532C222.473 29.4887 222.342 29.3954 222.157 29.3421C222.094 29.3244 222.026 29.2866 221.967 29.2888C221.294 29.3377 220.621 29.3888 219.952 29.451C219.676 29.4776 219.55 29.3777 219.364 29.3266C219.301 29.311 219.229 29.2822 219.17 29.2866C218.723 29.3177 218.275 29.3555 217.828 29.3932C217.575 29.4154 217.575 29.4154 217.024 29.2777C216.961 29.2622 216.888 29.2466 216.825 29.2511C215.406 29.3621 213.992 29.4798 212.573 29.5909C212.428 29.602 212.297 29.5687 212.185 29.5087C212.067 29.4488 211.936 29.4177 211.791 29.4288C211.195 29.4754 210.594 29.5176 210.002 29.5754C209.758 29.5998 209.564 29.5709 209.397 29.4932C209.27 29.4354 209.153 29.4132 208.994 29.4265C208.696 29.4532 208.398 29.4754 208.1 29.4998C207.802 29.5243 207.503 29.5487 207.205 29.5731C206.907 29.5976 206.604 29.6109 206.31 29.6486C205.949 29.6953 205.773 29.5576 205.524 29.4887C205.077 29.5221 204.629 29.5554 204.187 29.5909C203.59 29.6375 202.994 29.6886 202.397 29.733C202.343 29.7375 202.275 29.6975 202.212 29.6775C202.027 29.622 201.891 29.5443 201.616 29.5687C200.278 29.6864 198.932 29.7864 197.59 29.9018C197.31 29.9263 197.188 29.8308 196.998 29.7797C196.935 29.7641 196.862 29.7331 196.803 29.7375C196.058 29.793 195.312 29.8552 194.567 29.9152C194.264 29.9396 194.264 29.9396 193.758 29.8019C193.699 29.7863 193.622 29.7663 193.559 29.7708C192.588 29.8463 191.621 29.9263 190.649 30.004C190.505 30.0151 190.374 29.984 190.256 29.9241C190.143 29.8641 190.008 29.8308 189.868 29.8419C188.973 29.9129 188.074 29.9818 187.184 30.0595C186.944 30.0817 186.745 30.0618 186.574 29.9818C186.452 29.9241 186.33 29.8996 186.176 29.9129C184.834 30.0218 183.492 30.1262 182.15 30.2417C181.892 30.2639 181.712 30.2217 181.549 30.1484C181.418 30.0906 181.305 30.0795 181.142 30.0884C180.971 30.0995 180.867 30.1239 180.772 30.1906C180.65 30.2772 180.573 30.386 180.284 30.3927C179.986 30.3993 179.683 30.426 179.389 30.4638C179.109 30.5015 178.978 30.4016 178.802 30.3416C178.671 30.2994 178.549 30.2927 178.382 30.3127C178.228 30.3305 178.133 30.3682 178.043 30.4393C177.844 30.5903 177.826 30.5903 177.582 30.4948C177.451 30.4438 177.333 30.4038 177.189 30.4127C176.592 30.4571 175.996 30.506 175.399 30.557C175.056 30.5859 175.051 30.5904 174.794 30.4793C174.667 30.4238 174.545 30.3971 174.396 30.4104C172.756 30.5437 171.116 30.6725 169.476 30.8125C169.223 30.8347 169.051 30.788 168.87 30.7214C168.811 30.6992 168.753 30.6681 168.685 30.6592C168.617 30.6503 168.54 30.6592 168.468 30.6636C167.275 30.7592 166.078 30.8502 164.889 30.9568C164.618 30.9813 164.474 30.9102 164.288 30.8525C164.225 30.8325 164.171 30.8014 164.103 30.7925C164.035 30.7858 163.954 30.8014 163.882 30.808C162.689 30.9035 161.491 30.9946 160.303 31.1012C160.018 31.1256 159.896 31.0324 159.711 30.9835C159.648 30.9657 159.58 30.9324 159.521 30.9368C159.146 30.9613 158.776 30.9946 158.401 31.0235C157.506 31.0967 156.611 31.1656 155.717 31.2411C155.373 31.27 155.224 31.0723 154.935 31.0812C154.56 31.0923 154.189 31.1367 153.814 31.1678C153.516 31.1923 153.218 31.2145 152.92 31.2411C152.626 31.2656 152.626 31.2655 151.894 31.1367C151.831 31.1256 151.754 31.1101 151.691 31.1145C150.647 31.1967 149.599 31.2789 148.559 31.3677C148.32 31.3877 148.121 31.3766 147.949 31.2944C147.827 31.2367 147.701 31.2078 147.552 31.2211C145.984 31.3477 144.42 31.4743 142.852 31.5987C142.794 31.6032 142.717 31.5809 142.658 31.5632C142.532 31.5232 142.41 31.4766 142.288 31.4344C142.197 31.4854 142.08 31.5321 142.021 31.5898C141.94 31.6676 141.831 31.6898 141.66 31.7031C141.488 31.7164 141.38 31.712 141.244 31.6542C141.081 31.5832 140.914 31.5276 140.648 31.5498C139.007 31.6898 137.367 31.8164 135.727 31.9541C135.456 31.9763 135.329 31.8785 135.139 31.8275C135.076 31.8119 135.004 31.7875 134.945 31.7919C134.272 31.843 133.603 31.8986 132.93 31.9519C131.064 32.1029 129.198 32.2473 127.336 32.4072C126.997 32.4361 126.767 32.3805 126.527 32.285C126.477 32.265 126.392 32.2539 126.328 32.2584C123.717 32.4671 121.105 32.6781 118.498 32.8891C118.358 32.9002 118.222 32.8647 118.109 32.8069C117.992 32.747 117.861 32.7181 117.716 32.7292C116.523 32.8247 115.33 32.9202 114.137 33.018C113.839 33.0424 113.835 33.0446 113.527 32.938C113.464 32.9158 113.396 32.8736 113.347 32.878C113.243 32.8891 113.143 32.9446 113.071 33.0202C112.999 33.1001 112.886 33.1223 112.719 33.1379C112.547 33.1534 112.434 33.1468 112.303 33.0935C112.136 33.0268 111.982 32.9624 111.711 32.9846C108.281 33.2689 104.852 33.5421 101.422 33.8242C101.147 33.8464 101.02 33.7531 100.83 33.702C100.767 33.6865 100.704 33.6643 100.636 33.6598C100.564 33.6554 100.487 33.6687 100.415 33.6754C94.8208 34.1262 89.227 34.5793 83.633 35.0302C83.2987 35.0569 83.3032 35.0569 82.9372 35.2612C82.892 35.2856 82.8332 35.3189 82.7699 35.3234C81.0574 35.4655 79.3404 35.6032 77.6234 35.7409C76.8779 35.8009 76.1323 35.8631 75.3868 35.9208C75.1202 35.9408 75.1202 35.9408 74.4831 36.1807C74.4288 36.2007 74.3655 36.2273 74.3023 36.2318C71.3201 36.4739 68.3378 36.716 65.3511 36.9536C65.1161 36.9714 64.9264 37.0114 64.8179 37.118C64.7411 37.1935 64.6417 37.2379 64.4926 37.2512C62.4051 37.42 60.3176 37.5911 58.2255 37.7554C57.977 37.7754 57.8278 37.8376 57.7058 37.9309C57.6651 37.962 57.629 37.9975 57.5702 38.0197C57.516 38.0397 57.4347 38.0464 57.3669 38.053C55.5776 38.1974 53.7883 38.3462 51.9945 38.4839C51.7279 38.5039 51.6194 38.5861 51.4883 38.6727C51.4432 38.7016 51.4115 38.7416 51.3528 38.7615C51.294 38.7793 51.2082 38.7793 51.1359 38.7837C49.6448 38.9037 48.1537 39.0258 46.6626 39.1458C46.3734 39.1347 46.3101 39.2635 46.1701 39.3412C46.1203 39.3679 46.0843 39.4034 46.0255 39.4212C45.9623 39.439 45.8808 39.4367 45.804 39.4412C44.6111 39.5367 43.4183 39.6388 42.2209 39.7277C41.9453 39.7477 41.891 39.8609 41.7419 39.9387C41.6922 39.9631 41.6426 40.0009 41.5838 40.0075C40.8383 40.0719 40.0927 40.1319 39.3472 40.1897C39.0987 40.2096 39.0986 40.2074 38.6604 40.4273C38.6106 40.4517 38.5519 40.4784 38.4886 40.4851C37.3725 40.5784 36.252 40.6672 35.1314 40.7583C34.9868 40.7694 34.8874 40.8227 34.8151 40.8982C34.7428 40.9737 34.6389 41.0225 34.4943 41.0337C33.5996 41.1069 32.7049 41.1825 31.8102 41.2491C31.5617 41.2669 31.3991 41.3224 31.2906 41.4223C31.2093 41.4979 31.1099 41.5356 30.9518 41.5489C30.0571 41.62 29.1625 41.6978 28.2633 41.7599C28.0012 41.7777 27.8656 41.8532 27.7571 41.9465C27.6713 42.022 27.5719 42.0487 27.4047 42.062C25.7645 42.1908 24.1198 42.3196 22.4841 42.4618C22.2085 42.4862 22.0683 42.4085 21.8876 42.3529C21.6301 42.2752 21.3906 42.1908 21.3906 42.0176C21.3906 41.9909 21.3138 41.9598 21.2596 41.9376C20.8574 41.771 20.8574 41.771 20.7942 41.5934C20.758 41.4845 20.7174 41.3735 20.6857 41.2624C20.627 41.0803 20.4823 41.0337 20.0666 41.067C19.9175 41.0781 19.7684 41.0936 19.6193 41.1025C19.3979 41.118 19.2307 41.0448 19.1901 40.9115C19.1675 40.8382 19.1404 40.7649 19.1178 40.6916C19.3437 40.6738 19.3392 40.6716 19.7368 40.4029C19.904 40.2896 19.9041 40.2896 19.5832 40.1763C19.4612 40.1341 19.3437 40.0875 19.2127 40.0475C19.1539 40.0297 19.0772 40.0186 19.0139 40.0231C18.6389 40.0497 18.2684 40.0808 17.8978 40.1119C17.3014 40.1608 17.3013 40.1608 16.6959 39.9342C16.6461 39.9165 16.5693 39.8832 16.5784 39.8654C16.6281 39.7832 16.7501 39.7477 16.9037 39.7388C17.1296 39.7255 17.351 39.7032 17.5724 39.6855C17.7215 39.6744 17.8706 39.6611 18.0197 39.65C18.1598 39.5656 18.3045 39.4834 18.4355 39.3968C18.6434 39.2635 18.6433 39.259 18.3586 39.1658C18.1779 39.1036 17.9836 39.048 17.7983 38.9903C17.5769 39.0081 17.351 39.028 17.1296 39.0436C16.8495 39.0636 16.7365 39.0214 16.6642 38.877C16.6009 38.7504 16.6778 38.6416 16.8946 38.6149C17.116 38.5883 17.324 38.5705 17.4369 38.4573C17.5454 38.3484 17.7351 38.3062 17.9701 38.2973C18.1192 38.2907 18.2683 38.2751 18.4174 38.2618C18.6117 38.244 18.7157 38.1308 18.675 38.0042C18.6524 37.922 18.6072 37.8531 18.431 37.8354C17.6493 37.7576 17.6402 37.7598 17.2516 37.6088C17.2155 37.5955 17.1884 37.5555 17.202 37.5355C17.2246 37.5022 17.2743 37.4533 17.3285 37.4467C17.8481 37.3978 18.3677 37.3534 18.8874 37.3201C19.0591 37.309 19.1856 37.2934 19.2444 37.2112C19.3257 37.098 19.2895 36.9936 19.1314 36.9159C19.0817 36.8914 19.0003 36.8603 18.9461 36.8626C18.3496 36.9025 17.7577 36.9536 17.1613 36.9936C17.107 36.998 17.0077 36.9603 16.9851 36.9314C16.9399 36.8781 17.0076 36.807 17.1658 36.7826C17.3736 36.7493 17.586 36.7471 17.7261 36.636C17.9204 36.4783 18.1598 36.334 18.3767 36.1829C18.4129 36.1563 18.4717 36.1052 18.4581 36.1007C18.3452 36.0519 18.2141 36.0141 18.0966 35.9675C17.8978 35.8897 17.8978 35.7809 17.943 35.6765C17.9791 35.5921 18.1147 35.5588 18.2819 35.5588C18.3541 35.5588 18.4445 35.5588 18.5033 35.5388C18.6569 35.49 18.7066 35.4278 18.6298 35.3811C18.5846 35.3545 18.5033 35.3167 18.4491 35.3212C17.4821 35.3945 16.5106 35.4655 15.5481 35.5566C15.2635 35.5832 15.1325 35.4988 14.9608 35.4389C14.8298 35.3922 14.7077 35.3745 14.545 35.4078C14.3914 35.4389 14.2424 35.4211 14.1475 35.3478C14.0707 35.2879 14.2062 35.2368 14.5722 35.179C14.64 35.1679 14.7167 35.1612 14.7664 35.139C15.2906 34.8992 15.2906 34.8969 15.6521 34.8658C16.0045 34.837 16.0046 34.8348 16.1898 34.7059C16.2757 34.646 16.3705 34.586 16.4518 34.5238C16.4835 34.4994 16.5378 34.4549 16.5197 34.4416C16.4203 34.3728 16.2847 34.3572 16.1265 34.3728C15.7741 34.4105 15.3584 34.3794 15.1732 34.5904C15.1009 34.6704 14.9879 34.6926 14.8252 34.7059C13.1895 34.8348 11.5538 34.9725 9.91357 35.0968C9.64698 35.1168 9.52505 35.199 9.42113 35.2901C9.33076 35.3656 9.23133 35.3878 9.05962 35.4011C8.88792 35.4144 8.7523 35.4211 8.65289 35.3478C8.59415 35.3034 8.64387 35.2412 8.77942 35.179C8.97372 35.0902 8.93755 34.9791 8.8743 34.8747C8.82911 34.8059 8.68904 34.757 8.53993 34.7615C8.31852 34.7703 8.10621 34.7948 7.92095 34.7059C7.81251 34.6549 7.67693 34.6193 7.55493 34.5749C7.31996 34.4838 7.08499 34.3905 6.75514 34.4505C6.52922 34.4283 6.37107 34.3484 6.19033 34.2862C5.88759 34.184 5.86048 34.1684 6.07737 34.0596C6.32137 33.9375 6.13155 33.7775 6.26711 33.6576C6.4117 33.5288 6.61058 33.4155 6.7868 33.2956C6.83199 33.2645 6.87267 33.2356 6.91786 33.2045C6.81393 33.1601 6.71906 33.1046 6.59706 33.0735C6.43891 33.0335 6.35758 32.9846 6.36661 32.8469C6.33498 32.8269 6.34845 32.878 6.38459 32.8913C6.42526 32.9047 6.52474 32.8936 6.57445 32.878C6.70096 32.8358 6.76416 32.7803 6.73253 32.7337C6.71445 32.7092 6.62867 32.6781 6.57445 32.6781C6.47504 32.6781 6.3892 32.727 6.36209 32.8469C5.85602 32.938 5.33179 32.9824 4.80764 33.018C4.75342 33.0224 4.68568 32.978 4.62242 32.9558C4.41457 32.8802 4.41454 32.8825 3.80455 32.8602C3.74129 32.858 3.65548 32.827 3.62385 32.7959C3.49281 32.6604 3.49737 32.5116 3.43411 32.3672C3.55159 32.2739 3.66898 32.1828 3.79098 32.0918C4.03498 31.9074 4.35134 31.7453 4.54112 31.5432C4.50045 31.4344 4.44622 31.3255 4.64504 31.2367C5.20985 31.1256 5.20537 31.1256 5.35899 31.019C5.79729 30.717 6.23104 30.4127 6.68741 30.1151C6.80941 30.0373 6.80943 29.9951 6.59254 29.9618C6.52476 29.9529 6.45237 29.9507 6.38007 29.9552C6.15415 29.9707 5.92823 30.0107 5.70682 30.0018C5.48541 29.9951 5.32275 29.8974 5.14201 29.8374C4.95675 29.7752 4.7715 29.7108 4.58624 29.6464C4.37387 29.6531 4.16154 29.7153 3.94917 29.6153C3.7865 29.5376 3.58318 29.4821 3.39792 29.4177C3.538 29.2489 3.80011 29.12 4.00344 28.9712C4.1887 28.8357 4.19312 28.838 4.69016 28.7336C4.92512 28.6847 5.00645 28.4337 4.80764 28.3604C4.56816 28.2716 4.31518 28.1894 4.07118 28.105C3.85881 28.1117 3.64196 28.1717 3.43863 28.0717C3.28048 27.9962 3.09971 27.9451 2.83763 27.974C2.39482 28.0228 1.94298 28.0473 1.49565 28.0873C1.34202 28.1006 1.17479 28.0917 1.10701 28.0162C1.06183 27.9629 1.19287 27.8896 1.34198 27.874C1.56791 27.8518 1.77122 27.8252 1.88418 27.7141C1.99263 27.6031 2.19142 27.5697 2.42638 27.5542C2.48964 27.5498 2.56199 27.5231 2.59362 27.4965C2.75628 27.3676 2.93704 27.2566 3.28496 27.261C3.42955 27.2166 3.50632 27.1611 3.46113 27.1078C3.43402 27.0789 3.33918 27.0412 3.28496 27.0456C2.90993 27.0678 2.5349 27.09 2.1689 27.13C1.9972 27.1478 1.86609 27.1522 1.75765 27.0856C1.68084 27.0411 1.7215 26.9812 1.86609 26.9168C1.99261 26.8612 2.0288 26.7968 2.01976 26.7213C1.99717 26.5459 1.86158 26.4948 1.42781 26.5059C1.11603 26.5148 1.03921 26.4859 0.971434 26.3349C0.95336 26.2993 0.908255 26.2505 0.939884 26.226C1.13418 26.075 1.26071 25.8884 1.62671 25.8174C1.7713 25.7907 1.92487 25.7907 2.01524 25.733C2.10561 25.6752 2.18698 25.6086 2.28187 25.5531C2.39935 25.4864 2.4806 25.4243 2.42638 25.3821C2.33601 25.3065 2.19147 25.2999 2.02428 25.3265C1.87969 25.3487 1.72606 25.3509 1.57695 25.3643C1.31036 25.3887 1.09352 25.331 1.06189 25.2332C0.976041 24.9756 0.885645 24.7202 0.80883 24.4625C0.799793 24.4314 0.822324 24.3915 0.858472 24.3648C0.98499 24.2715 1.1206 24.1827 1.25163 24.0916C1.40526 23.9872 1.6493 24.0072 1.85715 23.9872C2.15086 23.9584 2.15076 23.9606 2.54387 23.7474C2.69749 23.663 2.9641 23.6963 3.12225 23.6208C3.17195 23.5963 3.24877 23.5564 3.23521 23.5341C3.21714 23.5053 3.12681 23.483 3.05904 23.4697C2.99578 23.4564 2.91898 23.4497 2.8512 23.4564C2.02884 23.5208 1.21101 23.5897 0.38864 23.6519C0.248566 23.663 0.0949327 23.6141 0.0452292 23.5453C-0.00447438 23.4808 0.00903701 23.4031 0 23.3298C0.131037 23.2387 0.28009 23.1543 0.393053 23.0566C0.478904 22.9811 0.578329 22.9478 0.750032 22.9433C0.975957 22.9367 1.19739 22.91 1.45042 22.89C1.92035 22.5658 2.3812 22.226 2.88728 21.9017C3.09061 21.7706 3.04098 21.6374 3.08165 21.4974C3.12232 21.3686 3.42504 21.3886 3.62837 21.3509C3.79104 21.3198 3.84519 21.2487 3.78193 21.1998C3.74578 21.171 3.66449 21.1376 3.60124 21.1376C3.45212 21.1376 3.30302 21.1576 3.15391 21.1687C3.0048 21.1798 2.8331 21.1732 2.7111 21.211C2.59362 21.2465 2.51676 21.322 2.43995 21.3864C2.3541 21.4575 2.24121 21.4819 2.06951 21.4864C1.8481 21.4908 1.62671 21.5108 1.4053 21.5263C1.1613 21.4397 0.908215 21.3553 0.673253 21.2643C0.628068 21.2465 0.618982 21.1954 0.623501 21.1621C0.632538 21.0755 0.564778 21.0222 0.415667 20.98C0.289149 20.9444 0.185215 20.8933 0.0677334 20.8489C0.158104 20.789 0.257546 20.7312 0.329842 20.6668C0.48799 20.5313 0.686826 20.4336 1.03023 20.438C1.16579 20.3514 1.2742 20.2448 1.45042 20.1848C1.61761 20.1271 1.90229 20.1848 2.0288 20.0538C2.09206 19.9894 2.187 19.9161 2.309 19.8894C2.5033 19.8472 2.75633 19.8695 2.86929 19.7451C2.93707 19.674 3.03644 19.6096 3.16748 19.5918C3.31659 19.5718 3.47018 19.5674 3.57862 19.5252C3.63736 19.503 3.70063 19.4674 3.70063 19.4363C3.70063 19.4164 3.61033 19.3853 3.54707 19.3719C3.48833 19.3564 3.41143 19.3453 3.34365 19.3497C3.11772 19.3631 2.89632 19.3875 2.6704 19.4008C2.60714 19.4052 2.53486 19.3897 2.46709 19.3764C2.26827 19.3408 2.2818 19.2964 2.43995 19.2165C2.5981 19.1387 2.71112 19.0388 2.84216 18.9477C2.98675 18.9322 3.16746 18.9388 3.26687 18.8966C3.43405 18.8278 3.55151 18.7278 3.68706 18.6412C3.83617 18.6279 3.98979 18.6234 4.12986 18.599C4.18861 18.5901 4.21574 18.5413 4.26544 18.5124C4.35581 18.4569 4.43269 18.3769 4.55469 18.3503C4.7535 18.3103 4.9975 18.3258 5.11498 18.2037C5.18276 18.1326 5.28664 18.0571 5.41316 18.0527C5.7656 18.0438 5.91472 17.9216 6.09546 17.8061C6.23101 17.7195 6.52021 17.7639 6.66932 17.6773C6.76872 17.6218 6.84106 17.5529 6.94047 17.4996C6.98114 17.4774 7.06696 17.4663 7.13474 17.4596C7.50525 17.4263 7.88028 17.4019 8.25079 17.3663C8.30954 17.3597 8.3638 17.3264 8.40899 17.2997C8.50387 17.242 8.56255 17.162 8.68003 17.1242C8.79751 17.0865 8.96467 17.0865 9.10927 17.0754C9.57467 17.0421 9.61086 17.0509 9.82323 16.8622C9.99493 16.7089 10.4152 16.8177 10.5553 16.6489C10.6366 16.5512 10.7857 16.4713 11.0522 16.4602C11.4273 16.4446 11.7978 16.4024 12.1728 16.3735C12.5072 16.3469 12.5027 16.3469 12.8642 16.1403C13.0268 16.047 13.2664 16.0604 13.4787 16.0426C13.7047 16.0248 13.9125 15.9982 14.0209 15.8871C14.1294 15.7783 14.3282 15.7428 14.5586 15.7272C14.771 15.7117 15.0105 15.7228 15.1777 15.6339C15.5844 15.4207 15.5799 15.4185 15.8645 15.3963C16.3119 15.3607 16.7592 15.3252 17.2065 15.2875C17.5047 15.263 17.8165 15.2586 18.0966 15.2097C18.3 15.1742 18.3903 15.0498 18.5213 14.9632C18.8919 14.9299 19.2624 14.8965 19.6329 14.8654C20.1525 14.821 20.6766 14.7811 21.2008 14.7389C21.4267 14.6545 21.4584 14.4679 21.838 14.459C22.0639 14.4546 22.2853 14.4257 22.5112 14.4079C22.8863 14.3768 23.2568 14.3369 23.6318 14.3213C23.9165 14.3102 23.9661 14.1903 24.1152 14.1147C24.1649 14.0881 24.2101 14.0503 24.2689 14.0437C24.8563 13.9815 25.4617 13.9682 26.0356 13.8771C26.0943 13.8682 26.1485 13.8216 26.1621 13.7883C26.1711 13.7705 26.0943 13.7372 26.0446 13.7216C25.9859 13.7039 25.9091 13.6861 25.8458 13.6905C23.9797 13.8394 22.1136 13.9904 20.2474 14.1392C19.9854 14.1614 19.9854 14.1592 19.3483 14.4035C19.294 14.4235 19.2307 14.4457 19.1629 14.4523C18.8647 14.479 18.562 14.4946 18.2683 14.5279C18.0288 14.5545 17.8301 14.5279 17.6584 14.4479C17.5364 14.3901 17.4098 14.3724 17.2561 14.3768C17.0844 14.3835 16.9715 14.4079 16.8721 14.4679C16.7411 14.5501 16.6733 14.6567 16.3977 14.6789C15.128 14.7744 13.8582 14.881 12.593 14.9832C12.4168 14.9521 12.331 14.9054 12.3761 14.8499C12.4032 14.8166 12.4575 14.7722 12.5117 14.7677C13.0313 14.7211 13.5555 14.6811 14.0751 14.6367C14.1474 14.63 14.2468 14.6345 14.2875 14.6122C14.4863 14.5123 14.5586 14.3502 14.9337 14.3391C15.1506 14.3324 15.3719 14.2991 15.5798 14.268C15.6385 14.2591 15.6928 14.2125 15.7063 14.1792C15.7108 14.1614 15.6385 14.1281 15.5843 14.1125C15.3855 14.0481 15.1551 14.1259 14.9563 14.0814C14.8885 14.0659 14.7936 14.0437 14.78 14.017C14.771 13.9926 14.8478 13.9526 14.902 13.9282C14.9517 13.906 15.0195 13.886 15.0872 13.8793C15.6837 13.8282 16.2802 13.7749 16.8767 13.735C17.1207 13.7194 17.2923 13.6639 17.4008 13.5617C17.4821 13.4862 17.5815 13.4462 17.7351 13.4351C18.7789 13.3529 19.8227 13.2619 20.8709 13.1864C21.133 13.1686 21.2686 13.0953 21.3771 12.9998C21.4629 12.9243 21.5623 12.8976 21.7295 12.8843C23.2252 12.7688 24.7117 12.64 26.2073 12.5289C26.483 12.509 26.5643 12.4135 26.7044 12.3313C26.7541 12.3024 26.7857 12.2669 26.8489 12.2491C26.9122 12.2313 26.9935 12.2335 27.0703 12.2291C28.2632 12.1336 29.4562 12.0314 30.6536 11.9426C30.9337 11.9226 30.9879 11.8115 31.1325 11.7338C31.1822 11.7094 31.2274 11.6694 31.2861 11.6627C32.1808 11.5872 33.0754 11.5162 33.9701 11.4429C34.5665 11.394 35.163 11.3451 35.7594 11.2985C36.0531 11.2763 36.0531 11.274 36.4507 11.063C36.4959 11.0386 36.5592 11.0097 36.618 11.0031C38.335 10.8609 40.0475 10.7255 41.7645 10.5855C41.9091 10.5744 42.013 10.5233 42.0853 10.4478C42.1576 10.3723 42.2616 10.3212 42.4017 10.3101C43.7437 10.1991 45.0856 10.0902 46.4322 9.98585C46.6762 9.96808 46.8478 9.91477 46.9563 9.81483C47.0376 9.73931 47.137 9.69935 47.2906 9.68824C48.6326 9.58163 49.9747 9.46834 51.3212 9.36617C51.5788 9.34618 51.7052 9.27068 51.8317 9.18184C51.8769 9.15074 51.9131 9.09966 51.9673 9.09521C52.6361 9.03303 53.3003 8.96861 53.9735 8.92641C54.2537 8.90865 54.3486 8.81536 54.4616 8.72652C54.5519 8.65544 54.6559 8.63102 54.8276 8.62213C55.2026 8.60215 55.5731 8.5644 55.9391 8.52664C55.9933 8.51998 56.0611 8.47112 56.0656 8.44002C56.0747 8.38227 55.9707 8.34229 55.799 8.3223C54.0097 8.46667 52.2159 8.61102 50.4266 8.75539C50.1329 8.77982 50.1328 8.77983 49.7352 8.99083C49.69 9.01526 49.6267 9.04414 49.5635 9.05081C47.8464 9.19073 46.134 9.32843 44.4169 9.46836C44.2723 9.47947 44.1684 9.53055 44.0961 9.60606C44.0238 9.68158 43.9198 9.73266 43.7797 9.74377C42.1395 9.87703 40.4994 10.0125 38.8546 10.1391C38.6106 10.1569 38.439 10.2079 38.3305 10.3101C38.2492 10.3856 38.1498 10.4256 37.9961 10.4367C36.4282 10.5611 34.8647 10.6921 33.2923 10.8121C33.1342 10.8232 33.0168 10.7588 33.0258 10.6988C33.0303 10.6677 33.098 10.6166 33.1522 10.6122C33.9701 10.5389 34.7835 10.4634 35.6058 10.4079C35.8815 10.3901 35.9627 10.2924 36.1028 10.2102C36.148 10.1813 36.1842 10.1435 36.2429 10.128C36.3062 10.1102 36.3875 10.1125 36.4643 10.108C38.4027 9.95033 40.3412 9.79042 42.2842 9.64161C42.5644 9.6194 42.6185 9.51055 42.7631 9.43282C42.8128 9.40616 42.858 9.3662 42.9167 9.36176C43.5132 9.30845 44.1096 9.2618 44.7061 9.21516C45.7498 9.13076 46.7936 9.04636 47.8419 8.96196C48.1446 8.93753 48.1446 8.93752 48.5332 8.72874C48.5784 8.70431 48.6417 8.67324 48.7005 8.66879C51.4613 8.44447 54.2221 8.22014 56.9829 7.99804C57.1275 7.98693 57.2314 7.93585 57.3037 7.86034C57.376 7.78704 57.4799 7.73374 57.62 7.72041C61.3523 7.41835 65.08 7.11628 68.8123 6.81866C69.0563 6.79867 69.228 6.75202 69.3364 6.64763C69.4132 6.57212 69.5172 6.53215 69.6708 6.51882C73.7736 6.18789 77.8764 5.85696 81.9837 5.52381C84.7445 5.3017 87.5054 5.07516 90.2662 4.8575C90.5192 4.83751 90.6547 4.76864 90.7812 4.67758C90.8219 4.64649 90.8626 4.5954 90.9168 4.59096C91.5087 4.53543 92.1006 4.48436 92.6926 4.43327C92.8778 4.49324 93.0631 4.551 93.2483 4.61097C93.3884 4.52657 93.524 4.43994 93.6641 4.35554C94.5588 4.29113 95.4398 4.19118 96.3435 4.16009C96.4023 4.15787 96.4655 4.20008 96.5288 4.22229C96.949 4.36221 97.1885 4.3511 97.4551 4.16454C97.55 4.09791 97.6313 4.03794 97.7759 4.02683C98.2232 3.98685 98.6752 3.9602 99.118 3.91356C99.3575 3.88913 99.5562 3.91133 99.7279 3.99129C99.8499 4.04904 99.9765 4.07348 100.126 4.06015C100.948 3.99352 101.766 3.92911 102.588 3.85803C102.647 3.85359 102.701 3.81582 102.746 3.78917C102.841 3.73142 102.922 3.66925 103.013 3.60928C103.135 3.64704 103.27 3.67591 103.37 3.72478C103.496 3.78252 103.614 3.78251 103.786 3.76696C107.066 3.49822 110.351 3.23614 113.631 2.96517C113.911 2.94296 114.034 3.03626 114.223 3.08512C114.287 3.10289 114.35 3.12509 114.418 3.12953C114.49 3.13397 114.567 3.12066 114.639 3.11399C117.102 2.9141 119.564 2.71641 122.027 2.51652C122.352 2.48987 122.352 2.48987 122.836 2.62757C122.894 2.64534 122.971 2.66533 123.034 2.65867C124.155 2.57205 125.276 2.47878 126.392 2.38993C126.536 2.37883 126.658 2.41436 126.789 2.46544C127.047 2.56539 127.065 2.5654 127.255 2.41881C127.345 2.34996 127.44 2.30774 127.589 2.28775C127.752 2.26554 127.883 2.27223 128.009 2.3122C128.19 2.36773 128.321 2.461 128.597 2.43657C129.79 2.33218 130.987 2.24557 132.175 2.13896C132.446 2.11453 132.591 2.19004 132.772 2.24556C132.835 2.26555 132.894 2.29665 132.962 2.30331C133.029 2.30997 133.111 2.29441 133.183 2.28775C134.674 2.16781 136.17 2.05012 137.656 1.9213C137.936 1.89687 138.058 1.99235 138.248 2.04122C138.311 2.05899 138.384 2.0901 138.442 2.08565C139.337 2.0168 140.236 1.94349 141.131 1.87019C141.452 1.84354 141.452 1.84576 141.94 1.98125C141.998 1.99901 142.075 2.01678 142.139 2.01234C143.182 1.93016 144.231 1.84576 145.274 1.76137C145.595 1.73471 145.595 1.73472 146.522 1.85021C146.589 1.8591 146.662 1.87244 146.729 1.868C147.922 1.77249 149.12 1.6792 150.313 1.57703C150.552 1.55704 150.751 1.5748 150.923 1.65476C151.045 1.71251 151.171 1.73695 151.32 1.72363C152.662 1.61479 154.009 1.51041 155.346 1.39492C155.604 1.37271 155.771 1.42155 155.952 1.48596C156.01 1.50817 156.069 1.53927 156.137 1.54815C156.205 1.55704 156.282 1.54815 156.354 1.54149C157.696 1.43265 159.042 1.33049 160.38 1.21278C160.651 1.18835 160.796 1.26386 160.976 1.31938C161.04 1.33937 161.107 1.37935 161.161 1.37713C161.686 1.33937 162.21 1.30607 162.729 1.25054C163.01 1.21945 163.132 1.3216 163.321 1.37046C163.385 1.38601 163.457 1.41934 163.516 1.4149C164.636 1.32828 165.757 1.23722 166.873 1.14394C167.031 1.13061 167.148 1.15058 167.275 1.20833C167.442 1.28607 167.637 1.31716 167.881 1.29273C168.4 1.24165 168.924 1.20612 169.448 1.16392C169.756 1.13949 169.756 1.1395 170.696 1.25499C170.763 1.26387 170.836 1.27719 170.903 1.27275C171.798 1.20168 172.697 1.13283 173.587 1.05509C173.827 1.03288 174.026 1.05287 174.197 1.13282C174.319 1.19057 174.441 1.21501 174.595 1.20169C175.417 1.13506 176.235 1.06842 177.058 1.00179C177.356 0.977358 177.654 0.935148 177.952 0.935148C178.169 0.937369 178.327 1.04397 178.522 1.09728C178.576 1.11283 178.666 1.09508 178.739 1.09064C179.782 1.00624 180.831 0.928494 181.87 0.832989C182.141 0.808558 182.286 0.884069 182.466 0.939594C182.53 0.959584 182.597 0.999564 182.652 0.997343C183.027 0.972912 183.397 0.939593 183.772 0.91072C184.219 0.875183 184.671 0.848531 185.114 0.799668C185.476 0.75969 185.611 0.952913 185.9 0.959576C186.122 0.966239 186.348 0.928488 186.569 0.91072C187.016 0.875183 187.464 0.835209 187.911 0.804115C188.069 0.79301 188.191 0.757458 188.241 0.677501C188.25 0.661954 188.173 0.628652 188.123 0.608663C187.523 0.382118 187.522 0.382107 186.917 0.43097C186.542 0.462064 186.171 0.493164 185.796 0.519816C185.733 0.524258 185.661 0.506491 185.598 0.493165C185.417 0.455407 185.435 0.410991 185.589 0.331034C185.742 0.251077 185.86 0.15336 185.991 0.0622979C186.176 0.120045 186.357 0.177771 186.542 0.235518C186.691 0.224413 186.84 0.211106 186.989 0.200001C187.735 0.142254 188.48 0.0822817 189.226 0.028977C189.28 0.0245349 189.348 0.068962 189.411 0.0911723C189.592 0.155582 189.755 0.211093 190.017 0.186662C190.685 0.122252 191.359 0.0756099 192.027 0.0200842C192.321 -0.00434718 192.321 -0.00434501 192.836 0.133359C192.895 0.148906 192.972 0.166675 193.035 0.162233C193.708 0.11115 194.377 0.0556304 195.05 0.00232567C195.195 -0.00877948 195.335 0.0200928 195.439 0.0845027C195.48 0.111155 195.471 0.155567 195.642 0.519816C196.175 0.815213 196.541 0.784134 196.912 0.757482C197.07 0.746377 197.21 0.735261 197.314 0.69084C197.368 0.666409 197.436 0.630867 197.436 0.601993C197.436 0.579783 197.337 0.54424 197.273 0.539798C196.826 0.495377 196.401 0.588674 195.963 0.608663C195.76 0.617547 195.583 0.53981 195.547 0.413211C195.538 0.377675 195.525 0.339919 195.511 0.304383C195.498 0.268846 195.489 0.231091 195.475 0.195554C195.299 0.184449 195.195 0.224421 195.118 0.299936C195.055 0.362125 194.964 0.433198 194.842 0.466514C194.72 0.50205 194.553 0.495399 194.404 0.506504C194.26 0.517609 194.101 0.546479 193.966 0.530932C193.83 0.513164 193.722 0.448743 193.595 0.408765C193.537 0.388775 193.464 0.359913 193.406 0.364355C192.886 0.402112 192.371 0.439856 191.856 0.488719C191.585 0.515371 191.449 0.422102 191.277 0.364355C191.142 0.319934 191.006 0.331025 190.984 0.433193C190.925 0.677506 191.133 0.779668 191.594 0.733027C191.973 0.693048 192.317 0.686405 192.615 0.837436C192.656 0.857425 192.75 0.866306 192.809 0.861864C193.18 0.835211 193.546 0.801893 193.916 0.77524C193.984 0.770798 194.056 0.779668 194.12 0.788552C195.041 0.908488 195.041 0.910721 195.353 0.884069C195.502 0.870742 195.647 0.859636 195.633 0.522039C195.918 0.160011 196.37 0.135584 196.808 0.0822795C197.093 0.0489641 197.215 0.146694 197.4 0.197778C197.463 0.215546 197.531 0.251076 197.59 0.246634C198.561 0.17334 199.528 0.0955927 200.495 0.0134146C200.658 8.83745e-05 200.775 0.0134167 200.902 0.0711635C201.064 0.144458 201.245 0.191109 201.503 0.164457C202.018 0.111152 202.542 0.077844 203.066 0.0334234C203.333 0.0112131 203.333 0.0111903 203.87 0.148894C203.929 0.164441 204.006 0.182211 204.069 0.177769C204.593 0.140011 205.113 0.0933836 205.633 0.0534051C205.777 0.0422999 205.908 0.0733911 206.021 0.133359C206.134 0.193327 206.27 0.224418 206.41 0.213313C206.934 0.173334 207.454 0.128928 207.973 0.0889492C208.036 0.0845071 208.113 0.100053 208.172 0.1156C208.723 0.253304 208.723 0.253282 208.976 0.231071C209.347 0.197756 209.726 0.182226 210.092 0.137805C210.449 0.0933847 210.635 0.222194 210.879 0.293267C211.547 0.242183 212.221 0.199994 212.885 0.137805C213.156 0.111153 213.301 0.18444 213.481 0.242187C213.545 0.262177 213.608 0.304381 213.666 0.302159C213.892 0.293275 214.114 0.268848 214.335 0.25108C214.557 0.233312 214.783 0.215546 215.004 0.197778C215.257 0.262187 215.424 0.413215 215.786 0.362132C216.003 0.331037 216.233 0.324374 216.454 0.306606C216.676 0.288838 216.902 0.271072 217.123 0.253303C217.272 0.242198 217.426 0.235525 217.571 0.215536C217.837 0.182221 217.968 0.291064 218.158 0.339927C218.221 0.355474 218.293 0.382109 218.352 0.377667C218.8 0.346573 219.251 0.319922 219.69 0.268839C220.029 0.22886 220.259 0.2955 220.499 0.388783C220.548 0.408772 220.634 0.419876 220.697 0.415434C221.221 0.377677 221.741 0.331022 222.261 0.291043C222.401 0.279938 222.536 0.315474 222.649 0.373221C222.767 0.433188 222.898 0.462083 223.042 0.450978C223.562 0.411 224.086 0.366566 224.606 0.326588C224.669 0.322145 224.746 0.339917 224.805 0.357685C225.311 0.495389 225.311 0.497612 225.609 0.47096C225.681 0.464297 225.758 0.459838 225.83 0.453174C226.201 0.42208 226.585 0.41099 226.946 0.357685C227.362 0.297717 227.665 0.373236 227.959 0.499835C228.329 0.473182 228.709 0.457632 229.07 0.413211C229.341 0.379896 229.486 0.46429 229.667 0.519816C229.73 0.539805 229.798 0.579784 229.852 0.575342C230.376 0.537584 230.9 0.504281 231.415 0.448755C231.695 0.417661 231.817 0.517589 232.007 0.568672C232.07 0.586441 232.138 0.617551 232.197 0.613109C232.495 0.595341 232.793 0.568676 233.092 0.544244C233.44 0.515371 233.439 0.51759 233.9 0.653073C234.117 0.717483 234.334 0.666397 234.547 0.650849C234.773 0.633081 234.985 0.619759 235.166 0.710822C235.279 0.768568 235.414 0.804106 235.554 0.795222C235.852 0.775233 236.155 0.755253 236.449 0.721938C236.684 0.695285 236.887 0.713044 237.059 0.795222C237.181 0.852969 237.307 0.881859 237.456 0.868533C238.125 0.815229 238.798 0.759682 239.467 0.708598C239.526 0.704156 239.607 0.724153 239.661 0.744143C239.788 0.784121 239.91 0.828532 240.032 0.872953C240.326 0.852963 240.628 0.844102 240.918 0.813008C241.225 0.781913 241.505 0.770805 241.745 0.892961C241.794 0.919614 241.866 0.957351 241.925 0.95513C242.151 0.946246 242.373 0.924042 242.594 0.906274C242.815 0.888505 243.041 0.870739 243.263 0.852971C243.52 0.908497 243.683 1.06841 244.044 1.01733C244.261 0.986231 244.492 0.979568 244.713 0.961799C244.935 0.944031 245.161 0.924044 245.382 0.908497C245.454 0.904055 245.536 0.892943 245.599 0.901827C245.667 0.910711 245.725 0.941812 245.784 0.964023C245.965 1.02843 246.132 1.09285 246.39 1.05509C246.606 1.024 246.837 1.01733 247.058 0.997343C247.361 0.972912 247.361 0.972916 247.863 1.11284C248.066 1.17059 248.296 1.09508 248.491 1.14394C248.622 1.17725 248.735 1.23277 248.861 1.27053C248.915 1.28607 249.001 1.29273 249.064 1.28828C249.363 1.2683 249.665 1.24832 249.959 1.215C250.199 1.18835 250.397 1.215 250.565 1.29495C250.687 1.3527 250.809 1.37715 250.962 1.36382C251.708 1.30163 252.453 1.24831 253.194 1.17946C253.447 1.15502 253.651 1.19279 253.791 1.27275C254.03 1.41045 254.369 1.24832 254.618 1.35937C254.771 1.42822 254.925 1.50819 255.205 1.47487C255.72 1.41712 256.244 1.38601 256.764 1.34603C256.949 1.406 257.135 1.46598 257.324 1.52595C257.623 1.50152 257.921 1.47707 258.219 1.45486C258.44 1.43709 258.666 1.41711 258.888 1.40156C258.96 1.39712 259.037 1.38823 259.105 1.39934C259.172 1.41044 259.227 1.43932 259.29 1.46153C259.602 1.57036 259.602 1.57259 260.117 1.52817C260.338 1.50818 260.551 1.49486 260.736 1.5837C260.908 1.66588 261.111 1.68141 261.346 1.65698C261.789 1.61256 262.236 1.57925 262.688 1.54815C262.828 1.53705 262.959 1.57481 263.076 1.63256C263.253 1.72362 263.47 1.71474 263.691 1.6903C263.985 1.65921 264.274 1.62812 264.522 1.7525C264.572 1.77915 264.649 1.81689 264.703 1.81467C265.074 1.7969 265.449 1.78358 265.81 1.74138C266.172 1.69918 266.348 1.83688 266.596 1.90351C266.967 1.87464 267.342 1.84576 267.712 1.81689C267.785 1.81023 267.871 1.79025 267.934 1.80136C268.2 1.848 268.354 2.01457 268.72 1.96349C268.932 1.93461 269.163 1.92574 269.384 1.91908C269.443 1.91686 269.52 1.95459 269.56 1.98347C269.583 1.99902 269.56 2.04121 269.533 2.06342C269.452 2.12561 269.353 2.18338 269.28 2.24779C269.271 2.25667 269.357 2.29663 269.407 2.3144C269.529 2.35438 269.669 2.34773 269.832 2.32996C269.972 2.31441 270.116 2.34551 270.216 2.41214C270.256 2.43879 270.243 2.48321 270.157 2.6298C270.157 2.73863 270.252 2.68975 270.283 2.61868C270.333 2.51651 270.238 2.4832 270.057 2.53873C269.931 2.5787 269.868 2.63646 269.899 2.6831C269.917 2.70753 270.003 2.73863 270.157 2.6298C270.554 2.49653 270.853 2.47211 271.151 2.44768C271.228 2.44102 271.318 2.41879 271.372 2.43212C271.567 2.48543 271.747 2.54985 271.937 2.60981C272.154 2.59649 272.357 2.56316 272.57 2.64978C272.868 2.77193 272.882 2.76083 273.171 2.7364C273.32 2.72307 273.469 2.71199 273.618 2.70088C273.767 2.68978 273.885 2.72308 274.016 2.77417C274.282 2.87856 274.305 2.87855 274.481 2.7364C274.585 2.64978 274.657 2.62092 274.788 2.66089C275.222 2.79638 275.227 2.80525 275.597 2.76528C275.904 2.73196 276.194 2.72308 276.42 2.84968C276.573 2.93852 276.623 2.91853 276.745 2.82525C277.07 2.57871 277.219 2.58315 277.829 2.76083C278.114 2.84523 278.408 2.75418 278.697 2.74307C278.941 2.73419 279.113 2.78748 279.131 2.92741C279.144 3.01403 279.185 3.07623 279.348 3.1051C279.411 3.11621 279.488 3.13175 279.551 3.1273C279.926 3.10065 280.296 3.06955 280.671 3.03846C280.861 3.02291 280.965 2.91854 280.929 2.78084C280.888 2.63425 280.961 2.58093 281.232 2.53873C281.394 2.51429 281.525 2.51876 281.657 2.55873C281.801 2.60316 281.76 2.64313 281.634 2.72309C281.331 2.91854 281.367 3.03846 281.756 3.17394C281.891 3.22058 282 3.2628 282.031 3.33165C282.05 3.36719 282.032 3.41383 282.072 3.44048C282.294 3.58929 282.601 3.6848 282.944 3.75587C283.274 3.69591 283.5 3.79583 283.753 3.87579C283.952 3.93798 284.187 3.88469 284.399 3.86248C284.639 3.83805 284.837 3.85581 285.009 3.93799C285.131 3.99573 285.258 4.02238 285.407 4.01127C285.705 3.98684 286.008 3.9713 286.301 3.93576C286.554 3.90467 286.744 3.9491 286.902 4.02461C287.101 4.12011 287.323 4.05569 287.531 4.06902C287.811 4.08457 287.951 4.28223 288.317 4.22893C288.534 4.19783 288.76 4.18673 288.986 4.17785C289.044 4.17563 289.117 4.21339 289.166 4.24004C289.406 4.3622 289.686 4.35553 289.993 4.32C290.206 4.29557 290.413 4.27337 290.621 4.35776C290.965 4.49991 291.344 4.6243 291.706 4.75534C291.755 4.85751 291.719 4.97742 291.977 5.03739C292.112 5.06848 292.239 5.11514 292.343 5.16622C292.469 5.22619 292.587 5.24174 292.749 5.2262C293.043 5.1951 293.35 5.18842 293.64 5.14844C293.906 5.1129 294.073 5.18622 294.236 5.25507C294.367 5.3106 294.489 5.33724 294.647 5.29726C294.81 5.2595 294.927 5.28392 295.058 5.34389C295.244 5.42607 295.257 5.4172 295.872 5.44163C295.935 5.44385 296.012 5.47715 296.048 5.50602C296.066 5.52157 296.025 5.56601 295.994 5.58822C295.953 5.61488 295.89 5.64595 295.831 5.65262C295.162 5.71036 294.489 5.76145 293.82 5.81919C293.753 5.82586 293.68 5.84142 293.631 5.86363C293.576 5.88806 293.509 5.92136 293.509 5.95245C293.509 5.97466 293.599 6.00132 293.662 6.01687C293.861 6.06795 294.096 5.99022 294.29 6.04797C294.421 6.08572 294.53 6.13902 294.661 6.17455C294.715 6.1901 294.801 6.18789 294.869 6.18345C295.095 6.1679 295.316 6.14569 295.542 6.13237C295.605 6.13015 295.677 6.15237 295.736 6.17013C296.17 6.3034 296.17 6.30339 296.545 6.27452C296.694 6.26341 296.852 6.23009 296.992 6.24342C297.128 6.25674 297.245 6.31671 297.367 6.35447C297.62 6.43443 297.86 6.51216 297.878 6.6854C297.887 6.75203 298.036 6.80977 298.185 6.81421C298.33 6.81865 298.483 6.79424 298.632 6.78092C298.985 6.75427 298.985 6.75426 299.441 6.88975C299.568 6.9275 299.703 6.93194 299.866 6.90973C299.929 6.90084 300.006 6.90974 300.074 6.92084C300.295 6.95416 300.295 6.99635 300.151 7.0763C299.947 7.19402 299.965 7.20513 300.535 7.30508C300.752 7.34284 300.919 7.41391 301.1 7.4761C301.393 7.57605 301.389 7.57603 301.195 7.70707C301.149 7.73594 301.109 7.76705 301.063 7.79814C300.932 7.88476 300.828 7.97804 300.557 7.98692C300.259 7.99581 299.961 8.03136 299.663 8.05579C299.374 8.08022 299.297 8.1335 299.324 8.28453C299.355 8.46666 299.414 8.48665 299.934 8.48443C300.083 8.48443 300.214 8.50219 300.327 8.56216C300.273 8.63323 300.173 8.68876 300.029 8.70209C299.658 8.7354 299.283 8.76428 298.913 8.79316C298.614 8.81759 298.316 8.84201 298.018 8.86644C297.833 8.88199 297.715 8.99749 297.765 9.12631C297.792 9.19961 297.815 9.2729 297.837 9.34619C297.887 9.49278 297.982 9.53055 298.285 9.52389C298.361 9.52166 298.434 9.50388 298.506 9.50832C298.8 9.52387 298.94 9.70821 299.292 9.67045C299.586 9.63936 299.893 9.6327 300.182 9.59272C300.449 9.55719 300.598 9.63717 300.783 9.69713C300.847 9.71712 300.914 9.7593 300.969 9.75708C301.344 9.73265 301.719 9.70823 302.085 9.66604C302.256 9.64827 302.36 9.66159 302.496 9.71489C302.821 9.84371 302.83 9.83705 303.314 9.79707C303.666 9.76597 303.671 9.77041 304.122 9.9059C304.249 9.94365 304.385 9.94365 304.547 9.92588C304.76 9.90367 304.981 9.86814 305.202 9.90145C305.27 9.91033 305.356 9.937 305.379 9.96587C305.392 9.98586 305.329 10.0347 305.275 10.0503C304.877 10.1658 304.412 10.1458 303.978 10.1924C303.842 10.2057 303.707 10.1635 303.594 10.1036C303.476 10.0436 303.35 10.0192 303.196 10.0303C302.898 10.0547 302.595 10.0703 302.302 10.1058C302.048 10.1369 301.872 10.0858 301.696 10.0169C301.637 9.99474 301.57 9.95253 301.511 9.95475C300.842 9.99917 300.169 10.0436 299.505 10.1058C299.238 10.1324 299.084 10.0614 298.904 10.0014C298.84 9.98142 298.777 9.93922 298.718 9.94144C298.492 9.95033 298.271 9.97475 298.045 9.99252C297.223 10.0592 296.405 10.1258 295.582 10.188C295.528 10.1924 295.461 10.1458 295.397 10.1258C295.275 10.0858 295.149 10.048 295.022 10.0103C294.796 10.028 294.575 10.0503 294.349 10.0636C294.186 10.0725 294.042 10.1036 294.019 10.188C294.006 10.2435 294.155 10.2946 294.313 10.2901C294.466 10.2857 294.62 10.259 294.747 10.2879C295.375 10.4301 295.375 10.4323 295.768 10.4034C296.111 10.3768 296.075 10.3545 296.378 10.4767C296.509 10.53 296.626 10.5611 296.775 10.5478C297.146 10.5167 297.521 10.4856 297.896 10.4589C297.955 10.4545 298.032 10.4767 298.09 10.4945C298.533 10.6277 298.533 10.6322 298.899 10.5989C299.378 10.5589 299.396 10.5478 299.717 10.6833C299.938 10.7765 300.142 10.7121 300.354 10.7077C300.598 10.7943 300.865 10.8721 301.086 10.9698C301.348 11.0853 301.624 11.0653 301.922 11.0319C302.143 11.0075 302.36 10.9986 302.541 11.0897C302.713 11.1741 302.921 11.183 303.155 11.1608C303.368 11.1408 303.585 11.0986 303.806 11.1474C303.865 11.1608 303.955 11.1941 303.951 11.2141C303.946 11.2452 303.887 11.2896 303.829 11.3029C303.413 11.394 302.957 11.3918 302.518 11.434C302.46 11.4406 302.383 11.4162 302.324 11.3984C302.198 11.3584 302.076 11.3118 301.954 11.2696C301.732 11.2829 301.506 11.2874 301.289 11.314C301.122 11.334 300.996 11.3318 300.874 11.2785C300.761 11.2296 300.639 11.1697 300.503 11.1541C300.368 11.1386 300.209 11.1719 300.06 11.1852C299.911 11.1985 299.74 11.1919 299.622 11.2274C299.505 11.2629 299.432 11.3407 299.355 11.4029C299.27 11.4717 299.152 11.4939 298.98 11.5006C298.822 11.5073 298.696 11.4984 298.578 11.4362C298.529 11.4095 298.461 11.3895 298.393 11.3718C298.33 11.3562 298.257 11.3318 298.199 11.3362C297.525 11.3873 296.857 11.4429 296.183 11.4962C295.849 11.5228 295.854 11.5228 295.158 11.3918C295.094 11.3806 295.018 11.3651 294.954 11.3695C294.579 11.3962 294.209 11.4273 293.834 11.4584C293.454 11.4895 293.459 11.485 292.813 11.3451C292.695 11.3185 292.523 11.354 292.383 11.3496C292.09 11.3385 291.945 11.1519 291.602 11.1874C291.308 11.2185 291.001 11.2252 290.707 11.2652C290.44 11.3007 290.287 11.223 290.106 11.163C290.043 11.143 289.975 11.0986 289.921 11.103C289.247 11.1519 288.579 11.2074 287.684 11.2141C287.463 11.2141 287.562 11.2607 287.707 11.2763C287.915 11.3007 287.982 11.2541 287.869 11.1652C287.788 11.103 287.671 11.0719 287.576 11.0875C287.526 11.0964 287.463 11.1386 287.684 11.2141C287.919 11.2985 287.906 11.3451 287.946 11.3718C288.046 11.4362 288.186 11.4628 288.33 11.4539C288.556 11.4384 288.778 11.4162 289.004 11.4029C289.067 11.3984 289.144 11.414 289.202 11.4317C289.699 11.5694 289.704 11.5783 290.233 11.525C290.4 11.5095 290.522 11.5095 290.653 11.5517C290.834 11.6094 290.965 11.7071 291.24 11.6761C291.606 11.6339 291.981 11.6094 292.356 11.585C292.415 11.5806 292.478 11.6205 292.546 11.6383C292.731 11.6916 292.867 11.7916 293.143 11.7494C293.355 11.716 293.585 11.7071 293.811 11.7005C293.87 11.6983 293.96 11.7338 293.987 11.7627C294.042 11.8138 293.974 11.8737 293.82 11.9159C293.757 11.9337 293.671 11.9293 293.599 11.9359C293.301 11.9604 293.002 11.987 292.704 12.007C292.546 12.0181 292.397 12.0514 292.379 12.1336C292.365 12.1891 292.528 12.238 292.682 12.2335C292.908 12.2269 293.133 12.2091 293.35 12.1802C293.734 12.1314 294.069 12.1447 294.381 12.2846C294.602 12.3823 294.588 12.3468 294.823 12.6356C294.882 12.7088 295.058 12.7155 295.212 12.7111C295.583 12.7 295.754 12.7333 295.723 12.8021C295.682 12.8865 295.551 12.9132 295.384 12.9243C295.085 12.942 294.787 12.9709 294.489 12.9954C294.417 13.002 294.335 13.0153 294.268 13.0109C294.2 13.0065 294.137 12.9798 294.078 12.9598C293.951 12.9176 293.843 12.8532 293.707 12.8376C293.572 12.8221 293.414 12.8554 293.265 12.8687C293.115 12.8799 292.957 12.9132 292.822 12.8976C292.686 12.8821 292.573 12.8155 292.451 12.7755C292.392 12.7555 292.32 12.7244 292.261 12.7266C291.963 12.7444 291.665 12.7733 291.367 12.7955C291.001 12.8243 291.001 12.8243 290.558 12.6866C290.431 12.6467 290.3 12.6489 290.133 12.6667C289.772 12.7022 289.767 12.6955 289.108 12.5667C289.044 12.5534 288.967 12.5378 288.904 12.5445C288.231 12.5956 287.562 12.6511 286.893 12.7044C286.32 12.751 286.32 12.7511 286.003 12.9732C285.768 13.1375 285.764 13.1375 285.994 13.213C286.179 13.2752 286.347 13.3663 286.55 13.3996C286.74 13.4307 286.975 13.3307 287.183 13.4329C287.287 13.484 287.422 13.5395 287.553 13.5484C287.761 13.5595 287.982 13.4951 288.181 13.5928C288.281 13.6417 288.43 13.6928 288.556 13.695C288.778 13.6994 289.004 13.6639 289.225 13.6483C289.293 13.6439 289.37 13.6439 289.433 13.655C289.501 13.6683 289.559 13.695 289.618 13.7172C289.799 13.7927 289.993 13.8282 290.228 13.7905C290.612 13.7283 290.956 13.7594 291.254 13.9015C291.294 13.9215 291.394 13.9238 291.457 13.9149C291.62 13.8927 291.76 13.8904 291.882 13.9326C291.932 13.9504 292.004 13.9815 291.995 14.0015C291.981 14.0348 291.927 14.0792 291.868 14.0903C291.444 14.1658 290.987 14.1747 290.549 14.2147C290.49 14.2191 290.418 14.1903 290.359 14.1703C290.233 14.1303 290.124 14.0637 289.989 14.0481C289.853 14.0326 289.695 14.0614 289.546 14.0726C289.397 14.0837 289.239 14.117 289.103 14.1037C288.967 14.0881 288.841 14.0326 288.732 13.9837C288.606 13.9282 288.484 13.9215 288.317 13.9437C288.1 13.9726 287.874 13.9771 287.653 13.9926C287.531 13.9504 287.409 13.9037 287.282 13.8638C287.223 13.8438 287.151 13.8194 287.088 13.8216C286.79 13.8393 286.491 13.866 286.193 13.8904C285.895 13.9148 285.895 13.9149 285.389 13.7772C285.33 13.7616 285.253 13.7438 285.19 13.7483C284.815 13.7749 284.444 13.8082 284.069 13.8349C283.925 13.846 283.794 13.8149 283.676 13.7549C283.563 13.695 283.428 13.6617 283.288 13.6728C282.691 13.7194 282.095 13.7638 281.498 13.8194C281.259 13.8416 281.055 13.8216 280.893 13.7416C280.703 13.6506 280.491 13.6728 280.269 13.6905C279.768 13.735 279.763 13.7327 279.442 13.6195C279.379 13.5972 279.316 13.555 279.257 13.5573C278.738 13.5906 278.213 13.6217 277.698 13.675C277.427 13.7039 277.283 13.6261 277.102 13.5684C277.039 13.5484 276.971 13.5062 276.917 13.5106C276.542 13.5351 276.166 13.5573 275.8 13.6017C275.434 13.6461 275.294 13.4396 275.019 13.4418C274.644 13.444 274.273 13.4951 273.903 13.5262C273.604 13.5506 273.306 13.575 273.008 13.5995C272.71 13.6239 272.412 13.6439 272.113 13.6728C271.955 13.6883 271.838 13.6683 271.707 13.6128C271.54 13.5395 271.341 13.4818 271.16 13.4151C270.884 13.3196 270.884 13.3196 270.55 13.3463C270.478 13.3529 270.401 13.3574 270.329 13.364C269.782 13.4129 269.782 13.4085 269.086 13.2685C269.054 13.2619 268.973 13.2863 268.941 13.3041C268.846 13.3618 268.761 13.424 268.675 13.484C268.553 13.4484 268.404 13.4285 268.322 13.3774C268.092 13.233 267.73 13.4307 267.495 13.2885C267.41 13.2352 267.26 13.1886 267.125 13.1752C266.985 13.1619 266.827 13.193 266.682 13.2063C266.307 13.2397 266.307 13.2374 265.986 13.4351C265.824 13.5328 265.589 13.5151 265.376 13.5373C265.155 13.5617 264.943 13.575 264.757 13.484C264.59 13.4018 264.387 13.3818 264.147 13.4085C263.854 13.4418 263.551 13.4618 263.253 13.4818C263.189 13.4862 263.112 13.4751 263.049 13.4618C262.358 13.3307 262.358 13.3285 262.024 13.3574C261.874 13.3707 261.721 13.3751 261.576 13.3951C261.332 13.4307 261.147 13.384 260.971 13.313C260.912 13.2907 260.844 13.2486 260.785 13.2508C260.487 13.2619 260.194 13.2819 259.9 13.3019C259.674 13.3174 259.448 13.3263 259.231 13.3574C258.87 13.4085 258.693 13.2641 258.445 13.1975C258.074 13.2263 257.699 13.2463 257.329 13.2863C257.157 13.3041 257.044 13.2974 256.913 13.2441C256.746 13.1775 256.592 13.102 256.321 13.1353C255.96 13.1797 255.58 13.1953 255.21 13.2219C254.961 13.1531 254.78 13.0131 254.423 13.0642C254.207 13.0953 253.976 13.102 253.755 13.1197C253.457 13.1442 253.158 13.1664 252.86 13.193C252.539 13.2197 252.544 13.213 252.051 13.082C251.767 13.0042 251.473 13.0909 251.184 13.1042C250.958 13.1153 250.845 13.2175 250.899 13.3485C250.953 13.4795 250.831 13.5817 250.623 13.5995C250.104 13.6417 249.58 13.6861 249.06 13.7238C248.997 13.7283 248.92 13.7127 248.861 13.6972C248.305 13.5573 248.305 13.5595 248.057 13.5795C247.686 13.6128 247.307 13.6306 246.941 13.6728C246.688 13.7016 246.502 13.655 246.34 13.5795C246.213 13.5217 246.096 13.5084 245.933 13.5217C244.144 13.6706 242.354 13.8083 240.57 13.9615C240.303 13.9837 240.15 13.9193 239.969 13.8593C239.906 13.8394 239.847 13.7971 239.783 13.7971C239.634 13.7971 239.485 13.8171 239.336 13.8305C238.667 13.8838 237.999 13.9482 237.325 13.9882C237.041 14.0059 236.964 14.1081 236.842 14.1925C236.747 14.2569 236.639 14.2835 236.471 14.2924C236.309 14.3013 236.191 14.2902 236.065 14.2325C235.902 14.1569 235.717 14.1103 235.464 14.1414C235.17 14.1769 234.872 14.1925 234.569 14.2169C234.415 14.228 234.298 14.268 234.248 14.348C234.239 14.3613 234.334 14.3946 234.388 14.4146C234.569 14.4812 234.741 14.559 234.944 14.6056C235.152 14.6522 235.378 14.5989 235.595 14.5856C235.672 14.5812 235.744 14.5678 235.816 14.5701C235.884 14.5723 235.965 14.5834 236.015 14.6034C236.25 14.7033 236.498 14.7722 236.824 14.7122C237.104 14.7411 237.249 14.9254 237.606 14.8766C237.823 14.8477 238.048 14.8344 238.274 14.8233C238.333 14.821 238.396 14.861 238.46 14.881C238.64 14.9365 238.785 15.0254 239.056 14.9876C239.345 14.9476 239.652 14.941 239.946 14.9099C240.109 14.8921 240.226 14.9077 240.353 14.9654C240.515 15.0387 240.701 15.0942 240.954 15.0587C241.171 15.0276 241.401 15.0209 241.623 15.0009C241.912 14.9765 241.912 14.9787 242.427 15.1164C242.486 15.132 242.562 15.1497 242.626 15.1453C243.001 15.1186 243.371 15.0853 243.746 15.0587C243.891 15.0476 244.031 15.0764 244.13 15.1409C244.171 15.1675 244.157 15.212 244.171 15.2497C243.425 15.3097 242.68 15.3608 241.939 15.434C241.659 15.4629 241.532 15.3719 241.347 15.3208C241.284 15.303 241.216 15.2653 241.157 15.2697C240.633 15.3074 240.113 15.3474 239.594 15.3963C239.431 15.4118 239.309 15.4029 239.187 15.3385C238.875 15.1675 238.496 15.2608 238.143 15.2852C237.872 15.303 237.786 15.3719 237.818 15.5184C237.859 15.6917 238.021 15.745 238.437 15.7139C238.586 15.7028 238.735 15.6872 238.884 15.6784C239.029 15.6695 239.16 15.6983 239.277 15.7583C239.39 15.8183 239.526 15.8494 239.666 15.8405C239.964 15.8205 240.267 15.8005 240.556 15.7672C240.796 15.7405 240.994 15.7628 241.162 15.8449C241.347 15.936 241.564 15.916 241.781 15.896C242.287 15.8516 242.291 15.8538 242.608 15.9649C242.671 15.9871 242.734 16.0293 242.793 16.0271C243.312 15.9938 243.837 15.9649 244.347 15.9116C244.614 15.8849 244.767 15.956 244.944 16.0137C245.007 16.0337 245.07 16.0781 245.129 16.0737C245.504 16.0493 245.879 16.0248 246.245 15.9826C246.417 15.9626 246.521 15.976 246.661 16.0293C246.995 16.1603 247.004 16.1559 247.478 16.1137C247.623 16.1003 247.781 16.0759 247.917 16.0937C248.052 16.1115 248.161 16.1759 248.287 16.2159C248.346 16.2336 248.418 16.258 248.482 16.2536C248.78 16.2358 249.078 16.2092 249.376 16.1848C249.656 16.1603 249.656 16.1625 250.181 16.3003C250.393 16.358 250.614 16.3091 250.827 16.2914C251.057 16.2714 251.265 16.2714 251.441 16.358C251.617 16.4446 251.83 16.4402 252.056 16.4224C252.268 16.4046 252.485 16.3558 252.702 16.4158C253.199 16.5535 253.199 16.5557 253.506 16.529C253.954 16.4912 254.396 16.4557 254.848 16.4224C254.907 16.418 254.984 16.4446 255.042 16.4624C255.169 16.5024 255.277 16.569 255.413 16.5845C255.549 16.6023 255.707 16.5756 255.851 16.5623C256.317 16.5201 256.348 16.5046 256.66 16.6512C256.922 16.7711 257.248 16.5979 257.492 16.7356C257.632 16.8133 257.821 16.8755 258.083 16.8377C258.3 16.8066 258.526 16.7977 258.752 16.78C259.109 16.7511 259.109 16.7533 259.561 16.8866C259.62 16.9044 259.696 16.9266 259.755 16.9221C260.053 16.9044 260.356 16.8888 260.645 16.8488C260.984 16.8022 261.201 16.8866 261.454 16.9688C261.653 17.0332 261.888 16.9799 262.1 16.9577C262.331 16.9355 262.539 16.9421 262.71 17.0287C262.891 17.1176 263.104 17.1065 263.329 17.0887C263.542 17.0732 263.759 17.0221 263.976 17.0843C264.441 17.222 264.441 17.222 264.78 17.1953C265.078 17.1709 265.376 17.1442 265.674 17.1265C265.733 17.122 265.806 17.1509 265.864 17.1709C265.991 17.2109 266.099 17.2775 266.235 17.293C266.37 17.3086 266.529 17.2797 266.678 17.2686C266.827 17.2575 266.985 17.2242 267.12 17.2375C267.256 17.2508 267.383 17.3064 267.491 17.3552C267.617 17.413 267.735 17.4196 267.907 17.3974C268.124 17.3686 268.349 17.3619 268.571 17.3464C268.693 17.3885 268.819 17.4307 268.937 17.4774C269.059 17.5262 269.19 17.5218 269.357 17.5063C269.913 17.453 269.917 17.4596 270.383 17.5973C270.595 17.6595 270.817 17.6084 271.029 17.5929C271.255 17.5751 271.467 17.5662 271.643 17.6551C271.815 17.7395 272.028 17.7506 272.253 17.7239C272.398 17.7061 272.552 17.6951 272.701 17.6884C272.769 17.6862 272.85 17.6951 272.9 17.7128C273.139 17.8061 273.374 17.8905 273.704 17.8305C273.993 17.8483 274.138 18.0304 274.486 17.9949C274.779 17.9638 275.087 17.9571 275.376 17.9171C275.642 17.8816 275.832 17.9438 275.968 18.0216C276.212 18.1593 276.555 17.9727 276.799 18.1082C276.939 18.1859 277.12 18.2481 277.391 18.2148C277.689 18.1792 277.784 18.2259 277.87 18.3658C277.92 18.4458 277.911 18.5102 277.82 18.5724C277.73 18.6368 277.631 18.6257 277.486 18.5524C277.319 18.4702 277.12 18.4546 276.88 18.4724C276.645 18.4902 276.501 18.3747 276.307 18.3303C276.112 18.2836 275.882 18.3614 275.679 18.3014C275.2 18.1615 275.2 18.1615 274.874 18.1881C274.653 18.2059 274.422 18.2148 274.206 18.2459C273.948 18.2836 273.781 18.2148 273.605 18.1526C273.541 18.1304 273.478 18.0882 273.424 18.0904C272.904 18.1237 272.38 18.1548 271.865 18.2103C271.594 18.2392 271.449 18.1593 271.268 18.1037C271.205 18.0837 271.137 18.0438 271.083 18.0482C270.636 18.0793 270.193 18.1193 269.746 18.157C269.66 18.217 269.565 18.2747 269.484 18.3391C269.398 18.4058 269.28 18.4347 269.109 18.4324C268.824 18.4324 268.544 18.5257 268.259 18.408C267.965 18.2881 267.943 18.2947 267.658 18.3236C267.297 18.3614 266.913 18.3525 266.574 18.4391C266.515 18.4547 266.452 18.4968 266.452 18.5279C266.447 18.5479 266.542 18.5768 266.601 18.5946C266.8 18.6479 267.03 18.5701 267.229 18.6257C267.36 18.6612 267.468 18.7145 267.599 18.7523C267.654 18.7678 267.735 18.7656 267.807 18.7634C267.884 18.7611 267.956 18.7456 268.029 18.7478C268.096 18.7501 268.169 18.7634 268.223 18.7834C268.472 18.8678 268.734 18.9455 268.955 19.0454C269.172 19.1432 269.375 19.0765 269.592 19.0721C270.46 19.2276 270.46 19.2298 271.043 19.1809C271.187 19.1698 271.336 19.1565 271.485 19.1587C271.549 19.1587 271.607 19.1987 271.671 19.2209C271.851 19.2875 272.023 19.3475 272.276 19.312C272.493 19.2809 272.723 19.2742 272.945 19.2542C273.243 19.2298 273.243 19.2298 273.749 19.3697C273.876 19.4052 274.011 19.4008 274.174 19.383C274.314 19.3675 274.458 19.4008 274.558 19.4652C274.599 19.4919 274.585 19.5363 274.599 19.5741C274.151 19.6096 273.699 19.634 273.266 19.6873C272.985 19.7206 272.859 19.6251 272.674 19.5741C272.61 19.5563 272.543 19.5185 272.484 19.523C272.041 19.5563 271.598 19.594 271.156 19.6384C271.101 19.6429 271.034 19.694 271.029 19.7251C271.02 19.7828 271.133 19.8383 271.296 19.8361C271.512 19.8339 271.725 19.7961 271.919 19.8872C272.082 19.9672 272.285 20.0027 272.525 19.9672C272.669 19.9472 272.823 19.9472 272.967 19.9294C273.352 19.8761 273.699 19.8872 273.989 20.0382C274.21 20.0782 274.427 20.0405 274.639 20.0205C274.797 20.0049 274.951 19.9894 275.064 20.0316C275.303 20.1204 275.538 20.2093 275.868 20.1493C276.225 20.2115 276.496 20.3425 276.795 20.4491C276.935 20.5002 277.043 20.5291 277.206 20.4958C277.274 20.4825 277.355 20.4824 277.427 20.4758C277.576 20.4647 277.734 20.4314 277.87 20.4447C278.005 20.4602 278.118 20.5246 278.241 20.5646C278.299 20.5846 278.367 20.6179 278.426 20.6157C278.652 20.6046 278.873 20.5824 279.094 20.5646C279.316 20.5491 279.537 20.5335 279.759 20.518C279.944 20.5757 280.134 20.6335 280.319 20.6912C280.617 20.6668 280.915 20.6424 281.209 20.6201C281.539 20.5935 281.539 20.5957 282.013 20.7334C282.226 20.7956 282.452 20.7556 282.655 20.7268C282.994 20.6801 283.22 20.7645 283.459 20.8534C283.509 20.8711 283.599 20.8822 283.658 20.8734C283.893 20.8423 284.096 20.8667 284.268 20.9489C284.39 21.0066 284.512 21.0333 284.661 21.0222C285.181 20.98 285.701 20.9355 286.22 20.8978C286.283 20.8933 286.356 20.9133 286.414 20.9311C286.875 21.0666 286.88 21.0732 287.219 21.0377C287.521 21.0066 287.802 20.9933 288.041 21.1154C288.091 21.1421 288.168 21.1799 288.222 21.1776C288.592 21.1554 288.967 21.131 289.333 21.0932C289.501 21.0755 289.618 21.0821 289.749 21.1332C289.916 21.1976 290.065 21.2754 290.341 21.2465C291.105 21.1643 291.109 21.1776 292.013 21.3309C292.076 21.342 292.162 21.3242 292.234 21.3153C292.388 21.2931 292.501 21.3242 292.636 21.3753C292.939 21.4908 292.948 21.4841 293.237 21.4597C293.459 21.4397 293.689 21.4353 293.906 21.402C294.24 21.3531 294.462 21.4397 294.71 21.5219C294.909 21.5863 295.14 21.533 295.352 21.513C295.582 21.4908 295.79 21.4974 295.962 21.5818C296.08 21.6396 296.206 21.6707 296.355 21.6596C296.875 21.6196 297.394 21.5752 297.914 21.5352C297.977 21.5308 298.054 21.5485 298.113 21.5641C298.628 21.7018 298.628 21.7085 299.139 21.6574C299.301 21.6418 299.437 21.6374 299.559 21.684C299.676 21.7285 299.803 21.7706 299.925 21.8128C300.146 21.7973 300.372 21.7929 300.589 21.7662C300.756 21.7462 300.874 21.7551 301.005 21.8018C301.176 21.8617 301.321 21.9661 301.592 21.915C301.732 21.8906 301.895 21.8972 302.035 21.875C302.202 21.8462 302.315 21.8639 302.446 21.9217C302.609 21.9905 302.776 22.0616 303.038 22.0261C303.327 21.9861 303.634 21.9794 303.928 21.9483C304.091 21.9306 304.204 21.9483 304.335 22.0061C304.498 22.0794 304.683 22.126 304.936 22.0971C305.451 22.0416 305.455 22.0527 305.957 22.1926C306.083 22.2282 306.219 22.2237 306.382 22.206C306.522 22.1904 306.666 22.2237 306.766 22.2881C306.861 22.3592 306.852 22.4036 306.861 22.4414ZM266.596 2.40992C266.447 2.42102 266.298 2.43435 266.081 2.24112C266.068 2.2078 266.077 2.16783 266.045 2.13896C265.973 2.07899 265.86 2.03679 265.724 2.03013C265.48 2.02124 265.186 2.09675 265.191 2.15449C265.196 2.20335 265.272 2.24555 265.421 2.28553C265.485 2.30107 265.534 2.32773 265.593 2.3455C265.765 2.39658 265.9 2.49654 266.149 2.44546C266.104 2.30776 266.126 2.37661 266.149 2.44546C266.126 2.52986 266.194 2.58983 266.357 2.61426C266.402 2.62092 266.47 2.61647 266.506 2.60314C266.646 2.55428 266.669 2.48767 266.565 2.3122C266.547 2.34108 266.56 2.39214 266.601 2.40547C266.641 2.4188 266.741 2.4077 266.791 2.39216C266.917 2.34996 266.98 2.29443 266.949 2.24779C266.931 2.22335 266.845 2.19226 266.791 2.19226C266.696 2.19226 266.61 2.24112 266.596 2.40992ZM303.133 28.1672C302.803 28.2094 302.424 28.1939 302.094 28.2805C302.035 28.296 301.976 28.336 301.972 28.3671C301.967 28.3871 302.058 28.416 302.112 28.4315C302.234 28.4671 302.369 28.4559 302.527 28.4448C302.767 28.4293 302.907 28.5315 303.092 28.5825C303.151 28.5981 303.228 28.6092 303.291 28.6047C303.657 28.5781 304.018 28.5492 304.384 28.5182C304.448 28.5115 304.516 28.4959 304.57 28.4759C304.751 28.4115 304.732 28.3693 304.556 28.3205C304.362 28.2672 304.208 28.1783 304.01 28.1361C303.725 28.0761 303.436 28.1561 303.133 28.1672ZM277.472 29.7886C277.251 29.8063 277.034 29.8241 276.813 29.8419C276.74 29.8485 276.663 29.8507 276.596 29.8596C276.456 29.8752 276.352 29.9218 276.284 29.9951C276.388 30.0529 276.514 30.0862 276.655 30.0795C276.876 30.0662 277.093 30.0373 277.314 30.0307C277.554 30.0218 277.694 30.1217 277.879 30.1728C277.938 30.1884 278.01 30.1906 278.078 30.1928C278.412 30.2017 278.616 30.0862 278.552 29.9241C278.507 29.7975 278.335 29.7219 278.128 29.7375C277.911 29.753 277.689 29.7708 277.472 29.7886ZM304.678 24.8845C304.732 24.8468 304.791 24.8201 304.818 24.7868C304.9 24.6735 304.868 24.5891 304.719 24.5003C304.538 24.3915 304.317 24.4648 304.113 24.4759C304.064 24.4781 304.01 24.5247 303.982 24.5536C303.964 24.5736 303.964 24.6158 303.991 24.6269C304.213 24.7157 304.448 24.7979 304.678 24.8845ZM265.48 18.3236C265.263 18.3414 265.042 18.3547 264.825 18.3791C264.771 18.3858 264.721 18.428 264.69 18.4569C264.631 18.5102 264.694 18.5835 264.879 18.5901C265.092 18.599 265.313 18.5613 265.534 18.5435C265.815 18.5213 265.982 18.4391 265.878 18.368C265.778 18.2992 265.643 18.2859 265.48 18.3236ZM27.6306 13.5773C27.7752 13.5662 27.9243 13.5573 28.0689 13.5417C28.2044 13.5262 28.3085 13.4773 28.3762 13.404C28.2633 13.3463 28.1367 13.3152 27.9966 13.3218C27.7752 13.3352 27.5584 13.3529 27.3415 13.3751C27.2059 13.3885 27.0749 13.4373 27.0433 13.5128C27.0117 13.5706 27.3143 13.6039 27.6306 13.5773ZM246.371 13.2352C246.43 13.2552 246.489 13.2952 246.548 13.2952C246.692 13.2952 246.841 13.2819 246.977 13.2596C247.036 13.2508 247.081 13.2108 247.108 13.1797C247.126 13.1597 247.122 13.1242 247.094 13.1064C246.963 12.9998 246.439 13.0376 246.353 13.1597C246.344 13.1819 246.367 13.2108 246.371 13.2352ZM232.116 1.07285C232.129 1.10839 232.134 1.14392 232.152 1.17946C232.188 1.24609 232.287 1.29496 232.432 1.32827C232.545 1.27275 232.604 1.21057 232.599 1.14394C232.595 1.1084 232.581 1.07284 232.563 1.03731C232.527 0.970676 232.427 0.921831 232.283 0.888515C232.17 0.94182 232.116 1.004 232.116 1.07285ZM315.12 30.175C315.08 30.2039 315.039 30.2328 314.994 30.2594C315.116 30.3238 315.229 30.3438 315.315 30.3083C315.369 30.2861 315.401 30.2528 315.441 30.2239C315.319 30.1595 315.211 30.1417 315.12 30.175ZM312.31 30.4771C312.369 30.4971 312.423 30.5237 312.486 30.5371C312.59 30.5593 312.685 30.5215 312.757 30.4415C312.699 30.4216 312.644 30.3949 312.581 30.3816C312.477 30.3594 312.382 30.3971 312.31 30.4771ZM314.09 30.0706C314.059 30.124 314.122 30.1684 314.289 30.2061C314.33 30.1773 314.384 30.1506 314.411 30.1195C314.456 30.0684 314.379 30.0218 314.217 29.9862C314.172 30.0129 314.131 30.0418 314.09 30.0706ZM304.552 27.6764C304.52 27.7297 304.583 27.7741 304.751 27.8118C304.791 27.783 304.845 27.7563 304.873 27.7252C304.918 27.6741 304.841 27.6275 304.678 27.592C304.633 27.6186 304.592 27.6475 304.552 27.6764ZM291.557 11.9604C291.516 11.9892 291.475 12.0181 291.43 12.0448C291.552 12.1092 291.665 12.1291 291.751 12.0936C291.805 12.0714 291.837 12.0381 291.877 12.0092C291.755 11.9448 291.647 11.927 291.557 11.9604ZM279.108 3.62259C279.216 3.63814 279.307 3.60706 279.384 3.52488C279.325 3.50489 279.271 3.47823 279.207 3.46491C279.103 3.4427 279.009 3.48047 278.936 3.56042C278.995 3.58263 279.054 3.6026 279.108 3.62259ZM272.497 3.10065C272.457 3.12953 272.416 3.1584 272.371 3.18505C272.493 3.24946 272.606 3.26945 272.692 3.23391C272.746 3.2117 272.778 3.17838 272.818 3.14951C272.696 3.0851 272.588 3.06956 272.497 3.10065ZM227.669 1.07063C227.629 1.0995 227.588 1.12838 227.543 1.15503C227.665 1.21944 227.778 1.23942 227.864 1.20388C227.918 1.18167 227.95 1.14836 227.99 1.11948C227.868 1.05507 227.76 1.03953 227.669 1.07063ZM4.45971 19.1409C4.40097 19.1209 4.34228 19.101 4.28806 19.0788C4.15702 19.1387 4.11637 19.1943 4.18866 19.2365C4.23385 19.2631 4.30157 19.2787 4.36031 19.2986C4.49587 19.2387 4.52748 19.1854 4.45971 19.1409Z" fill="#FFE492"/>
<path d="M30.6679 11.2985C30.1483 11.3407 29.6332 11.394 29.1136 11.4206C28.838 11.434 28.7386 11.5295 28.6257 11.6183C28.5353 11.6894 28.4314 11.7116 28.2642 11.7249C26.8544 11.8338 25.4491 11.9492 24.0439 12.0625C23.8676 12.0336 23.7818 11.987 23.8225 11.9315C23.8451 11.8982 23.8993 11.8515 23.9535 11.8471C24.916 11.7649 25.8738 11.6805 26.8408 11.6161C27.1164 11.5983 27.1933 11.5006 27.3333 11.4206C27.3785 11.394 27.4147 11.354 27.4734 11.3385C27.5322 11.3207 27.618 11.3229 27.6948 11.3185C29.2492 11.1919 30.8036 11.0675 32.358 10.9409C32.5342 10.9698 32.62 11.0164 32.5794 11.072C32.5568 11.1053 32.5025 11.1519 32.4483 11.1564C31.8519 11.203 31.2599 11.2496 30.6679 11.2985Z" fill="#FFE492"/>
<path d="M315.18 23.1255C314.945 23.1521 314.647 23.1899 314.403 23.061C314.285 22.9988 314.159 22.9789 314.005 22.9922C313.784 23.0144 313.558 23.0322 313.332 23.0455C313.273 23.0477 313.196 23.0233 313.138 23.0033C313.011 22.9633 312.903 22.8967 312.767 22.8789C312.631 22.8612 312.469 22.91 312.329 22.8989C312.143 22.8834 312.067 22.8234 312.116 22.7679C312.143 22.7368 312.198 22.6924 312.256 22.6857C313.092 22.6035 313.097 22.6035 313.332 22.6835C313.513 22.7457 313.68 22.8145 313.937 22.7767C314.154 22.7456 314.385 22.739 314.606 22.719C314.913 22.6923 314.913 22.6946 315.41 22.8345C315.537 22.87 315.672 22.8678 315.835 22.8478C315.975 22.8323 316.111 22.8678 316.224 22.9278C316.151 23.0033 316.047 23.0522 315.907 23.0655C315.681 23.0877 315.46 23.1032 315.18 23.1255Z" fill="#FFE492"/>
<path d="M306.859 22.4415C307.429 22.3948 308.003 22.3549 308.572 22.3016C308.807 22.2794 308.992 22.3038 309.155 22.3793C309.331 22.4615 309.53 22.4548 309.747 22.4393C309.882 22.4304 310.013 22.4659 310.104 22.5281C310.14 22.5525 310.131 22.597 310.144 22.6325C309.647 22.6725 309.146 22.7147 308.644 22.7502C308.586 22.7546 308.513 22.7325 308.459 22.7147C308.337 22.6769 308.233 22.6103 308.102 22.597C307.822 22.5659 307.542 22.6258 307.257 22.6369C307.122 22.6414 306.99 22.6081 306.9 22.5481C306.864 22.5192 306.873 22.477 306.859 22.4415Z" fill="#FFE492"/>
<path d="M101.11 3.34503C101.702 3.29617 102.294 3.24955 102.886 3.20068C103.062 3.23178 103.143 3.27619 103.107 3.33172C103.084 3.36503 103.03 3.41168 102.976 3.41612C101.792 3.51606 100.608 3.61155 99.429 3.70706C99.2528 3.67596 99.1715 3.63155 99.2076 3.57602C99.2302 3.54271 99.2845 3.49607 99.3387 3.49162C99.9261 3.44054 100.518 3.39389 101.11 3.34503Z" fill="#FFE492"/>
<path d="M9.89863 15.6872C9.63204 15.6916 9.35195 15.7738 9.05373 15.7116C8.99499 15.7005 8.91363 15.665 8.91815 15.645C8.92719 15.6117 8.98142 15.5695 9.04016 15.5561C9.29771 15.5006 9.61856 15.4939 9.74959 15.3385C9.81285 15.2585 9.93033 15.2319 10.0885 15.2163C10.2557 15.1986 10.3731 15.2052 10.5041 15.2518C10.6759 15.3118 10.8205 15.4229 11.0916 15.3651C11.1051 15.4007 11.1367 15.4406 11.1231 15.474C11.1096 15.5073 11.0509 15.5384 10.9967 15.5628C10.947 15.585 10.8792 15.605 10.8159 15.6117C10.5177 15.6383 10.2194 15.6605 9.89863 15.6872Z" fill="#FFE492"/>
<path d="M244.899 15.2406C245.12 15.2229 245.351 15.214 245.567 15.1829C245.739 15.1585 245.848 15.174 245.983 15.2273C246.214 15.3206 246.227 15.3117 246.792 15.325C246.855 15.3273 246.932 15.3606 246.968 15.3894C246.991 15.405 246.959 15.4472 246.932 15.4694C246.891 15.4983 246.833 15.536 246.778 15.536C246.421 15.5427 246.06 15.6737 245.712 15.5227C245.536 15.4472 245.341 15.4116 245.102 15.445C244.957 15.465 244.804 15.4738 244.655 15.4827C244.51 15.4916 244.361 15.4672 244.271 15.4006C244.14 15.3028 244.216 15.2651 244.451 15.2717C244.6 15.2762 244.75 15.2517 244.899 15.2406Z" fill="#FFE492"/>
<path d="M326.792 30.5505C327.076 30.5283 327.361 30.5017 327.65 30.4839C327.709 30.4795 327.781 30.5039 327.835 30.5195C328.052 30.5861 328.021 30.6994 328.03 30.7993C328.034 30.9037 327.533 30.9881 327.32 30.917C327.085 30.8371 326.873 30.746 326.548 30.7949C326.421 30.8126 326.272 30.7727 326.191 30.7083C326.069 30.615 326.136 30.5772 326.367 30.5839C326.502 30.5883 326.647 30.5639 326.792 30.5505Z" fill="#FFE492"/>
<path d="M183.339 0.320056C183.632 0.295625 183.926 0.257886 184.22 0.255665C184.391 0.253444 184.477 0.326723 184.436 0.380028C184.414 0.413344 184.36 0.459986 184.305 0.464428C183.718 0.517733 183.131 0.562161 182.543 0.611024C182.372 0.57993 182.286 0.533296 182.326 0.479991C182.349 0.446675 182.403 0.402254 182.457 0.395591C182.751 0.364496 183.045 0.344487 183.339 0.320056Z" fill="#FFE492"/>
<path d="M321.158 23.3206C321.443 23.2984 321.732 23.265 322.017 23.2539C322.166 23.2495 322.283 23.3006 322.301 23.3583C322.31 23.385 322.238 23.4316 322.179 23.4427C321.773 23.5182 321.334 23.5271 320.91 23.5649C320.774 23.576 320.629 23.5404 320.548 23.4783C320.426 23.3828 320.494 23.3472 320.724 23.3539C320.869 23.3561 321.013 23.3317 321.158 23.3206Z" fill="#FFE492"/>
<path d="M252.363 15.5408C252.508 15.5297 252.657 15.5008 252.797 15.5097C252.946 15.5208 253.041 15.5852 253.086 15.6497C253.136 15.7229 253.131 15.7918 253.086 15.854C253.014 15.9606 252.941 15.9562 252.774 15.8851C252.517 15.774 252.499 15.7874 251.988 15.7918C251.929 15.7918 251.857 15.7585 251.812 15.7296C251.744 15.6852 251.78 15.6163 251.938 15.5764C252.056 15.5475 252.218 15.5519 252.363 15.5408Z" fill="#FFE492"/>
<path d="M310.572 22.5921C310.784 22.5743 310.997 22.5455 311.209 22.5455C311.358 22.5433 311.476 22.5943 311.489 22.6499C311.494 22.6765 311.426 22.7209 311.372 22.7343C311.114 22.7942 310.825 22.7987 310.545 22.8187C310.414 22.8275 310.269 22.792 310.188 22.7298C310.066 22.6365 310.138 22.5943 310.36 22.6076C310.427 22.6121 310.5 22.5988 310.572 22.5921Z" fill="#FFE492"/>
<path d="M277.148 19.8674C276.832 19.8941 276.533 19.8608 276.556 19.8031C276.588 19.7275 276.719 19.6786 276.854 19.6653C277.071 19.6431 277.288 19.6253 277.509 19.612C277.649 19.6031 277.776 19.6365 277.889 19.6942C277.821 19.7653 277.717 19.8164 277.582 19.8319C277.442 19.8474 277.292 19.8563 277.148 19.8674Z" fill="#FFE492"/>
<path d="M275.072 19.5833C275.284 19.5656 275.497 19.5367 275.709 19.5367C275.858 19.5345 275.976 19.5855 275.989 19.6411C275.994 19.6677 275.926 19.7121 275.872 19.7255C275.614 19.7854 275.325 19.7899 275.045 19.8099C274.914 19.8188 274.769 19.7832 274.688 19.721C274.566 19.6277 274.638 19.5856 274.86 19.5989C274.927 19.6033 275 19.59 275.072 19.5833Z" fill="#FFE492"/>
<path d="M249.802 15.5228C250.015 15.5051 250.227 15.4762 250.44 15.4739C250.589 15.4717 250.706 15.5228 250.72 15.5784C250.724 15.605 250.656 15.6472 250.602 15.6628C250.345 15.7227 250.055 15.7272 249.775 15.7472C249.644 15.756 249.5 15.7205 249.418 15.6583C249.296 15.565 249.369 15.5228 249.59 15.5361C249.658 15.5406 249.73 15.5273 249.802 15.5228Z" fill="#FFE492"/>
<path d="M248.613 15.3919C248.838 15.3741 248.911 15.363 248.983 15.363C249.119 15.363 249.259 15.3897 249.34 15.4541C249.462 15.5474 249.39 15.5741 249.168 15.5785C248.884 15.5829 248.604 15.6296 248.319 15.6385C248.17 15.6429 248.052 15.5896 248.043 15.5341C248.039 15.5074 248.106 15.4608 248.161 15.4519C248.35 15.4186 248.558 15.3986 248.613 15.3919Z" fill="#FFE492"/>
<path d="M273.233 2.32549C273.088 2.3366 272.935 2.3677 272.799 2.35659C272.618 2.34104 272.546 2.28108 272.591 2.22556C272.618 2.19446 272.668 2.15004 272.722 2.14338C273.011 2.11229 273.305 2.09228 273.594 2.07007C273.766 2.10338 273.843 2.15002 273.798 2.20555C273.771 2.23664 273.721 2.27884 273.667 2.28773C273.527 2.30994 273.377 2.31439 273.233 2.32549Z" fill="#FFE492"/>
<path d="M97.8713 3.60705C98.0113 3.60483 98.1378 3.6337 98.2462 3.68923C98.1784 3.7603 98.0791 3.80694 97.9435 3.82693C97.8757 3.83582 97.7989 3.84247 97.7266 3.84469C97.5866 3.84913 97.46 3.81804 97.3516 3.76251C97.4193 3.69144 97.5232 3.6448 97.6543 3.62481C97.722 3.61593 97.799 3.61372 97.8713 3.60705Z" fill="#FFE492"/>
<path d="M319.613 23.3118C319.609 23.2474 319.884 23.1741 320.133 23.1763C320.264 23.1785 320.4 23.2096 320.476 23.2696C320.594 23.3607 320.526 23.3962 320.305 23.3895C320.169 23.3851 320.024 23.4228 319.889 23.4162C319.735 23.414 319.645 23.3651 319.613 23.3118Z" fill="#FFE492"/>
<path d="M253.674 15.8097C253.67 15.7853 253.647 15.7564 253.661 15.7342C253.746 15.612 254.266 15.5743 254.402 15.6809C254.424 15.7009 254.433 15.7342 254.415 15.7542C254.388 15.7853 254.338 15.8252 254.284 15.8341C254.144 15.8563 253.999 15.8674 253.855 15.8697C253.792 15.8697 253.733 15.8319 253.674 15.8097Z" fill="#FFE492"/>
<path d="M11.509 15.3322C10.9759 15.3788 10.9668 15.3744 11.0617 15.2633C11.1476 15.1634 11.3057 15.1034 11.5362 15.1034C11.604 15.1034 11.6762 15.099 11.735 15.1078C11.7982 15.119 11.8886 15.1411 11.9022 15.1678C11.9293 15.2189 11.8524 15.2744 11.7169 15.3122C11.6581 15.3299 11.5813 15.3255 11.509 15.3322Z" fill="#FFE492"/>
<path d="M104.544 3.29402C104.386 3.33178 104.25 3.31846 104.151 3.24739C104.052 3.17632 104.21 3.09191 104.485 3.07192C104.558 3.06748 104.634 3.04972 104.702 3.05861C104.77 3.06527 104.838 3.0919 104.878 3.11855C104.951 3.16297 104.906 3.22296 104.761 3.27404C104.702 3.29403 104.616 3.28958 104.544 3.29402Z" fill="#FFE492"/>
<path d="M318.672 23.1452C318.712 23.1163 318.753 23.0874 318.798 23.0608C318.965 23.0985 319.038 23.143 318.992 23.194C318.965 23.2251 318.911 23.2518 318.87 23.2807C318.703 23.2429 318.635 23.1963 318.672 23.1452Z" fill="#FFE492"/>
<path d="M18.666 40.6159C18.666 40.5892 18.7293 40.547 18.779 40.5381C18.8739 40.5226 18.9913 40.5537 19.0726 40.6159C19.1856 40.7047 19.1179 40.7514 18.91 40.7269C18.7654 40.7092 18.666 40.6647 18.666 40.6159Z" fill="#FFE492"/>
<path d="M255.514 13.7419C255.573 13.7619 255.631 13.7819 255.686 13.8041C255.609 13.8863 255.514 13.9218 255.415 13.8996C255.351 13.8863 255.297 13.8596 255.238 13.8396C255.315 13.7574 255.406 13.7264 255.514 13.7419Z" fill="#FFE492"/>
<path d="M253.95 13.6422C254.041 13.6089 254.149 13.6267 254.275 13.6911C254.235 13.7199 254.199 13.7533 254.149 13.7755C254.063 13.811 253.95 13.7932 253.828 13.7266C253.864 13.6999 253.905 13.6711 253.95 13.6422Z" fill="#FFE492"/>
<path d="M252.752 13.7398C252.811 13.7597 252.87 13.7797 252.924 13.802C252.847 13.8841 252.757 13.9197 252.653 13.8974C252.589 13.8841 252.535 13.8575 252.477 13.8375C252.553 13.7553 252.644 13.722 252.752 13.7398Z" fill="#FFE492"/>
<path d="M251.87 13.6218C251.938 13.6662 251.902 13.7195 251.771 13.7795C251.712 13.7595 251.644 13.7439 251.599 13.7173C251.527 13.6751 251.563 13.6195 251.698 13.5596C251.753 13.5818 251.811 13.6018 251.87 13.6218Z" fill="#FFE492"/>
</svg>
