<svg width="15" height="15" viewBox="0 0 15 15" fill="none" xmlns="http://www.w3.org/2000/svg">
<path d="M14.9962 14.9999V14.9993H14.9999V9.48076C14.9999 6.78105 14.4246 4.70142 11.3002 4.70142C9.79826 4.70142 8.79033 5.53402 8.37884 6.32337H8.3354V4.95346H5.37305V14.9993H8.45767V10.025C8.45767 8.71524 8.70344 7.44877 10.3091 7.44877C11.8911 7.44877 11.9147 8.94345 11.9147 10.109V14.9999H14.9962Z" fill="#F7F7EE"/>
<path d="M0.223877 4.92554H3.35821V14.7763H0.223877V4.92554Z" fill="#F7F7EE"/>
<path d="M1.79104 0C0.802303 0 0 0.798563 0 1.78269C0 2.76683 0.802303 3.58209 1.79104 3.58209C2.77979 3.58209 3.58209 2.76683 3.58209 1.78269C3.58147 0.798563 2.77916 0 1.79104 0V0Z" fill="#F7F7EE"/>
</svg>
